<svg width="78" height="78" viewBox="0 0 78 78" fill="none" xmlns="http://www.w3.org/2000/svg">
<path d="M37.7525 0.000729458C36.4016 0.0388523 35.6173 0.877433 35.6443 1.89588C35.7151 4.35218 38.9067 3.73134 38.9504 5.38155C38.9776 6.23662 38.3731 6.63971 37.5889 6.6669C37.1804 6.67779 36.4124 6.48728 36.1945 6.0897C36.0529 5.81739 35.9167 5.40879 35.8351 4.90228L35.5137 4.98945L35.6662 6.57976C36.1564 6.91743 36.995 7.0481 37.6541 7.03721C39.0593 6.98819 39.8381 6.11694 39.8163 4.89149C39.7567 2.95257 36.5544 3.49163 36.5057 1.64534C36.484 0.91004 36.9845 0.458027 37.7038 0.436253C38.5099 0.409022 38.8422 1.00811 39.011 1.71608L39.3377 1.66699L39.158 0.16942C38.6896 0.136742 38.2213 -0.0103128 37.7528 0.000574544L37.7525 0.000729458ZM41.8154 0.278545L41.7718 0.599726L42.6814 0.899327L41.8319 6.59604L40.8732 6.61783L40.8243 6.94473L45.6768 7.6637L46.3141 6.10047L45.9656 6.0461L45.4263 7.02637L42.7741 6.6288L43.1717 4.03102L44.9363 4.29232L44.9962 5.04937L45.2793 5.09846C45.3066 4.57017 45.4372 3.67152 45.5734 3.16496L45.2958 3.13217L45.007 3.81305L43.2423 3.55174L43.6183 1.09544L45.7259 1.40583L45.8457 2.37531L46.1345 2.42419L46.2162 0.937337L41.8154 0.278545ZM51.0485 2.33262C49.664 2.34353 48.642 3.13572 48.09 4.59187C47.186 6.98826 48.4223 8.53513 50.4865 9.30298C51.0747 9.53167 51.7338 9.68963 52.4527 9.76043L53.569 8.78545L53.4112 8.52393C52.6215 9.17209 51.6957 9.30292 50.748 8.94349C49.0704 8.32261 48.4332 6.3781 49.1304 4.52097C49.7676 2.84346 51.0148 2.45683 52.6323 3.07226C54.3697 3.72037 54.5602 4.61912 54.3478 5.47971L54.6582 5.59947L55.1703 3.93279C54.5276 3.46441 53.4818 2.92534 52.8338 2.68568C52.1874 2.44366 51.5903 2.32835 51.0485 2.33262ZM25.6836 2.43524L23.0096 3.40471L23.1293 3.72061L24.0605 3.55176L26.0268 8.95436L25.188 9.4391L25.3078 9.74949L29.8173 8.11563L29.5776 6.18766L29.2782 6.29663L29.1965 7.70721L26.8818 8.55122L24.9646 3.22479L25.7871 2.74555L25.6836 2.43524ZM57.1855 4.72265L57.0111 5.00025L57.692 5.65934L55.5298 8.86172C54.6693 10.0762 54.8 11.465 56.4938 12.5979C58.2911 13.8124 59.6582 13.1644 60.7147 11.6068L62.5228 8.93264L63.3992 9.33021L63.5899 9.05245L61.3842 7.55477L61.1936 7.82711L61.8858 8.50245L60.0279 11.2363C59.7393 11.6774 59.2599 12.3746 58.6989 12.5434C57.9909 12.7558 57.2447 12.4726 56.8526 12.2057C55.6272 11.3779 55.6871 10.2778 56.5149 9.10139L58.4811 6.18771L59.358 6.57978L59.5376 6.31847L57.1847 4.72275L57.1855 4.72265ZM18.0213 5.96976L17.602 6.23657L18.8711 12.9846L18.2719 13.5621L18.4407 13.8507L20.4886 12.5545L20.3143 12.2767L19.4212 12.6362L18.9527 10.5665L21.0332 9.25936L22.8032 10.5174L22.0952 11.1492L22.264 11.427L24.6278 9.94016L24.4588 9.66785L23.6691 9.96745L18.0213 5.96976ZM18.3095 7.32607L20.5975 8.9544L18.8598 10.0492L18.3095 7.32607ZM13.6584 9.18861L11.5452 11.0785L11.763 11.3182L12.5799 10.8169L16.425 15.0924L15.826 15.8495L16.0548 16.089L18.1679 14.1992L17.9502 13.9542L17.1332 14.4607L13.2826 10.1799L13.8871 9.42281L13.6584 9.18861ZM65.1095 10.4795L64.87 10.6917L65.4201 11.5359L61.1937 15.441H61.1935L60.3875 14.82L60.1478 15.0489L62.1031 17.1727L62.3536 16.9387L61.8255 16.1381L63.5628 14.5313C63.8188 14.8091 64.0583 15.0489 64.2926 15.2613C64.042 16.3179 63.8296 17.456 63.6826 18.5834C63.6826 18.6705 63.8679 19.0028 63.9714 19.2044L64.3307 19.8632L64.6085 19.749C64.3797 19.1227 64.5486 18.3819 64.6521 17.7937L65.0388 15.7512C65.8177 15.9364 66.7162 15.8603 67.3207 15.2993C68.1704 14.5205 67.9036 13.5129 67.2609 12.805L65.1094 10.4784L65.1095 10.4795ZM66.1173 12.184C66.248 12.2657 66.3839 12.3856 66.5147 12.5327C67.2608 13.3333 67.1738 14.1502 66.3841 14.88C65.3875 15.8004 64.9571 15.4192 64.1511 14.5423L64.1185 14.5042L64.0802 14.4606L64.0639 14.4441L64.0421 14.4225L64.0258 14.406L64.0095 14.3842L63.9932 14.368L63.9767 14.3462L63.9604 14.3299L63.9441 14.3081L63.9279 14.2918L63.9114 14.2755L63.9006 14.259L63.8898 14.2427L66.1173 12.184ZM10.2267 12.5763C9.58949 13.0555 8.76704 13.8834 8.33686 14.4225C6.79562 16.3397 6.99181 18.175 8.69105 19.5203C10.7061 21.1106 12.5523 20.4188 13.9194 18.6924C14.306 18.2022 14.6493 17.6248 14.9379 16.9658L14.3607 15.599L14.0611 15.6696C14.4369 16.6173 14.2789 17.5323 13.6581 18.3328C12.5416 19.738 10.5047 19.749 8.94713 18.5127C7.54196 17.3962 7.56363 16.0891 8.63652 14.7329C9.78571 13.2842 10.7062 13.3713 11.4523 13.8506L11.6647 13.5838L10.2268 12.5762L10.2267 12.5763ZM70.3867 16.5139L70.1089 16.6882L70.4956 17.5758L65.6865 20.7403L65.0274 20.0486L64.7498 20.2228L66.3237 22.6029L66.6013 22.4231L66.2148 21.5354L71.0074 18.371V18.3712L71.6665 19.0629L71.9443 18.883L70.3866 16.5139L70.3867 16.5139ZM49.6866 17.0475C45.6069 17.0089 44.3371 18.5944 44.3371 18.5944H44.3373L44.2283 18.8559L44.1249 19.1117L44.0214 19.3569L43.9179 19.6019L43.8145 19.8362L43.7163 20.0704L43.6128 20.2881L43.5093 20.506L43.4059 20.7185L43.3022 20.9199L43.1987 21.1105L43.0953 21.3012L42.9863 21.481L42.8773 21.6499L42.7631 21.8132L42.6486 21.9658L42.5289 22.1128L42.4091 22.2544L42.2838 22.3796L42.1531 22.4994L42.0223 22.6083L41.8861 22.7118L41.7445 22.8045L41.5975 22.8862L41.4396 22.9568L41.2816 23.0167L41.1182 23.0713L40.9494 23.1094L40.7697 23.142L40.5899 23.1585L40.3992 23.1693L40.1978 23.1637C36.1076 22.9731 35.4758 20.5496 35.4378 20.2175C35.3779 19.7491 36.2437 19.2425 36.2437 19.2425C36.015 19.2425 34.2613 19.3516 32.0446 18.6926C28.9784 17.8048 28.9675 19.9071 28.9675 19.9071C28.9675 19.9071 25.1986 18.9212 24.6975 20.8383C24.4579 21.7369 24.6704 23.0222 24.6704 23.0222C24.6704 23.0222 27.4044 21.5681 29.5067 23.2945C31.304 24.7922 31.6744 26.0287 34.2615 28.9915C35.585 30.4891 38.929 35.4179 43.1607 33.1959C43.1607 33.1959 42.5834 32.085 39.7567 30.2005C38.5205 29.3836 36.6251 28.5448 35.4161 27.5755C34.2887 26.6605 33.8311 26.2956 31.5817 23.7033C30.634 22.614 27.7529 21.1489 26.0863 21.7044C25.9338 21.7589 25.9067 21.8952 25.7759 21.9877C25.7759 21.9877 25.7269 21.2578 25.8358 20.9692C25.9938 20.5607 27.6822 20.441 29.7082 21.0183C29.7082 21.0183 29.3162 19.4115 30.9065 19.6893C32.5132 19.9725 34.0871 20.5171 34.5773 20.3809C34.5773 20.3809 34.6099 24.0845 40.4374 24.4603C43.3022 24.64 44.4788 21.5193 45.1977 20.3266C45.4155 19.9725 45.9166 19.2808 46.4339 19.1447C50.1974 18.1425 57.1141 18.2134 61.3242 25.3426C63.0724 28.3435 65.7956 34.5631 66.9447 36.5181C69.7986 41.4088 71.9338 40.521 73.7583 38.8436C73.7583 38.8436 71.0568 40.3469 68.6496 34.8025C67.5603 32.2863 63.8187 24.0844 60.9975 21.546C59.5869 20.2607 57.5335 18.3108 53.8083 17.532C52.1916 17.1961 50.8292 17.0579 49.6868 17.0471L49.6866 17.0475ZM25.6304 17.8418C22.1863 17.9088 19.52 19.6329 17.133 21.7859C14.0286 24.5907 12.0735 29.5196 10.2055 33.5117C8.40272 37.3459 7.66184 37.8577 6.07705 38.7236L6.01167 38.7619L5.95179 38.7945L5.88641 38.8218L5.82125 38.8489L5.76115 38.8762L5.69577 38.9035L5.63589 38.9253L5.57602 38.9471L5.45626 38.9851L5.34179 39.0177L5.22753 39.045L5.11307 39.0668L5.0041 39.0778L4.90063 39.0886L4.79717 39.0941L4.6992 39.0996H4.60653L4.51957 39.0941L4.43239 39.0831L4.34522 39.0723L4.26905 39.0613L4.19267 39.045L4.122 39.0342L4.05662 39.0124L3.99653 38.9959L3.94215 38.9796L3.88777 38.9634L3.83869 38.9416L3.8006 38.9253L3.76251 38.909L3.72972 38.898L3.70793 38.8817L3.68613 38.8707L3.66984 38.8654L3.65905 38.8599C3.65905 38.8599 4.98796 40.3577 6.19705 40.3086C9.51927 40.1888 11.9211 34.6825 12.8033 32.8744C13.9689 30.4726 16.0439 25.1188 19.4969 22.1289C22.5032 19.5418 25.6239 18.8611 26.6042 18.774C28.652 18.6215 28.7173 18.202 28.7173 18.202C27.62 17.934 26.5948 17.823 25.6304 17.8418ZM30.3949 20.3099V20.3154H30.4001V20.3207L30.4057 20.3262L30.4112 20.3317L30.4167 20.3425L30.4219 20.348L30.4329 20.3643L30.4437 20.3808L30.46 20.4026L30.4765 20.4244L30.4928 20.446L30.5091 20.4732L30.5254 20.5005L30.5419 20.5331L30.5637 20.5659L30.58 20.5985L30.6018 20.6313L30.6236 20.6694L30.6399 20.702L30.6617 20.7456L30.678 20.7836L30.6943 20.8219L30.7108 20.8653L30.7271 20.9036L30.7433 20.9472L30.7541 20.9908L30.7651 21.0342L30.7759 21.0777L30.7869 21.1213L30.7924 21.1649L30.7977 21.2085V21.2521V21.2957C30.7977 21.2957 31.3643 20.8164 32.5734 20.8382C32.5734 20.8382 30.934 20.3807 30.3949 20.3099ZM72.8436 20.3808L71.2479 20.8763L71.395 21.1867L72.506 21.0506C72.653 21.3175 72.7946 21.606 72.9417 21.9164L73.4319 23.0057L68.2307 25.3422L67.6315 24.4328L67.3266 24.5636L68.601 27.3846L68.9006 27.2486L68.612 26.2082L73.8132 23.8717L74.3198 24.983C74.4614 25.3207 74.5921 25.6418 74.701 25.936L73.8132 26.5786L73.9603 26.9055L75.4361 26.1484L72.8436 20.3808ZM49.9856 20.4212C48.3571 20.4315 47.2345 20.7295 47.2345 20.7295C47.1256 20.7894 46.8532 20.9365 46.7443 21.1107C46.3358 21.8079 45.7748 22.9353 45.7748 22.9353C54.2982 23.3546 56.0139 33.7517 56.0139 33.7517L56.1992 33.8389L56.3844 33.9258L56.564 34.013L56.7384 34.1057L56.9072 34.1927L57.076 34.2853L57.2339 34.378L57.3919 34.465L57.5445 34.5521L57.6913 34.6448L57.8331 34.7318L57.9694 34.8134L58.1054 34.9006L58.2307 34.9823L58.3504 35.0587L58.4649 35.1401L58.5739 35.211L58.6773 35.2872L58.7753 35.3526L58.8625 35.4179L58.9496 35.4778L59.0258 35.5379L59.0967 35.5923L59.1566 35.6414L59.2165 35.685L59.2655 35.723L59.3091 35.7556L59.3417 35.7829L59.369 35.8047L59.3908 35.821L59.4016 35.832L59.4071 35.8373C59.4068 35.8362 57.4136 29.3399 54.9575 26.0506C52.8007 23.175 49.4186 22.1838 49.4186 22.1838C54.2386 21.906 55.7852 23.9429 57.4518 26.2576C59.1783 28.6212 61.7925 36.8451 63.4482 38.5066C64.6519 39.7319 66.6235 39.9608 66.6235 39.9608C66.1551 39.3236 64.1998 36.1593 62.6421 32.2542C60.7745 27.5169 58.5092 23.7047 56.5755 22.3484C54.3276 20.7689 51.8317 20.4115 49.9857 20.4234L49.9856 20.4212ZM6.17618 20.7151C4.88908 20.7046 3.76698 21.4069 3.05936 22.9458C2.17161 24.863 2.91241 26.6276 4.91671 27.548C6.67591 28.354 8.52752 27.902 9.54595 25.6581L9.62212 25.4838L9.693 25.3041L9.75288 25.13L9.80197 24.9557L9.84555 24.7813L9.87814 24.6072L9.90543 24.4383L9.92173 24.2695L9.93273 24.1007V23.9371L9.92173 23.7738L9.91093 23.6159L9.88364 23.4579L9.85084 23.3L9.81276 23.1475L9.76917 23.0004L9.70929 22.8534L9.64942 22.7118L9.57853 22.5756L9.50236 22.4395L9.41519 22.3088L9.32273 22.178L9.22455 22.0582L9.11558 21.9385L9.00132 21.824L8.88156 21.715L8.7508 21.6061L8.61454 21.5081L8.473 21.4154L8.32595 21.323L8.16811 21.2413L8.01005 21.1596V21.1594C7.38086 20.8734 6.76185 20.7207 6.17675 20.7163L6.17618 20.7151ZM23.532 21.557L23.5212 21.5625L23.4939 21.5678L23.4394 21.5843L23.3632 21.6114L23.276 21.6442L23.1618 21.6877L23.0365 21.7421L22.8895 21.813L22.7314 21.8947L22.5573 21.9926L22.3666 22.1016L22.1597 22.2324L21.9473 22.3794L21.7185 22.5427L21.4788 22.7334L21.2283 22.9403L20.967 23.169L20.7002 23.4196L20.4224 23.6974L20.1391 23.997L19.8505 24.3237L19.5564 24.6831L19.2512 25.0644L18.9464 25.4783L18.6415 25.9194L18.3256 26.3989L18.173 26.6494L18.0152 26.9054L17.8571 27.1722L17.6993 27.4498L17.5412 27.7331L17.3887 28.0217L17.2308 28.3269L17.0728 28.6372L16.9149 28.9586L16.7624 29.2853L16.6045 29.623L16.452 29.9717L16.4518 29.9715C12.6721 38.6147 10.4447 40.2814 10.4447 40.2814C14.2788 40.2814 16.4845 35.4723 17.5901 32.6239C20.7762 24.291 23.6683 23.6319 23.6683 23.6319C23.5212 23.1418 23.532 21.557 23.532 21.557ZM5.8371 21.6706C6.35413 21.6682 6.91579 21.7851 7.49273 22.0472L7.62349 22.1126L7.75404 22.178L7.8793 22.2434L8.00476 22.314L8.12453 22.3904L8.24429 22.4666L8.35854 22.543L8.46752 22.6244L8.57649 22.7116L8.67466 22.7988L8.77263 22.8914L8.8653 22.9839L8.95248 23.0821L9.03394 23.18L9.10482 23.2835L9.1757 23.387L9.24108 23.4959L9.29546 23.6049L9.34454 23.7194L9.38813 23.8391L9.42071 23.9589L9.44801 24.0787L9.4698 24.2039L9.48059 24.3347V24.4654L9.47509 24.6017L9.4588 24.7377L9.43172 24.874L9.39892 25.021L9.35534 25.1626L9.30096 25.3151L9.23558 25.4675C8.53845 26.9869 6.87177 27.3247 4.92743 26.437C3.33235 25.7025 2.77141 24.4447 3.38143 23.1426C3.77825 22.2586 4.70026 21.6769 5.83775 21.6715L5.8371 21.6706ZM45.219 23.8609C44.9467 24.46 43.901 25.7616 43.901 25.7616C50.2351 28.6319 50.2569 32.5042 50.2569 32.5042L50.3493 32.4934H50.442H50.54H50.6436L50.7526 32.4987L50.8616 32.5097L50.9758 32.5152L51.0901 32.5315L51.2046 32.5423L51.3188 32.5588L51.5531 32.5968L51.782 32.6404L51.8962 32.6622L52.0052 32.684L52.1142 32.7058L52.2177 32.7274L52.3156 32.7492L52.4136 32.771L52.5063 32.7928L52.5934 32.8146L52.6696 32.8364L52.746 32.8526L52.8112 32.8691L52.8712 32.8854L52.8983 32.8962L52.9256 32.9017L52.9474 32.9072L52.9692 32.9127L52.9855 32.918L53.0018 32.9235H53.0183L53.0291 32.929H53.0401L53.0454 32.9345H53.0509C52.1032 26.1866 45.219 23.8609 45.219 23.8609ZM27.4558 23.9731C27.4019 23.9735 27.3466 23.9759 27.2897 23.9807C26.4455 24.0515 23.2486 24.8631 20.4329 31.2897L20.3076 31.5728L20.1878 31.8396L20.0734 32.1012L19.9644 32.3462L19.8556 32.5859L19.7575 32.8146L19.6595 33.0325L19.5668 33.2395L19.4744 33.4409L19.3927 33.626L19.311 33.8112L19.2346 33.9802L19.164 34.1381L19.0986 34.2906L19.0332 34.4377L18.9733 34.5682L18.9187 34.6937L18.8644 34.8135L18.8153 34.9169L18.7717 35.0204L18.7336 35.1076L18.6955 35.1892L18.6629 35.2654L18.6301 35.3308L18.6084 35.3907L18.5866 35.4398L18.5648 35.4778L18.5485 35.5159L18.5377 35.5377L18.5322 35.5595L18.5267 35.5705V35.5758V35.576C19.616 34.8135 21.7834 34.0945 21.7834 34.0945C24.5664 25.62 28.7384 24.4219 28.7384 24.4219C28.7384 24.4219 28.2645 23.9671 27.4558 23.9731ZM29.9858 25.6089L29.6263 25.8213L29.2778 26.05L28.9401 26.2953L28.6187 26.5566L28.3083 26.8344L28.0087 27.123L27.7201 27.4171L27.4423 27.7222L27.181 28.0381L26.925 28.354L26.6853 28.6754L26.4566 29.0021L26.2386 29.3235L26.0317 29.6449L25.8358 29.9663L25.6506 30.2822L25.4816 30.5871L25.3182 30.8919L25.1712 31.1808L25.0296 31.4584L24.9044 31.7254L24.7901 31.9812L24.6811 32.2154L24.5885 32.4333L24.5068 32.635L24.4361 32.8091L24.376 32.9672L24.3272 33.0977L24.3054 33.1523L24.2891 33.2014L24.2726 33.2448L24.2618 33.2775L24.2508 33.3048L24.2455 33.3266L24.24 33.3374V33.3427C24.9861 33.1139 26.6254 32.9234 26.6254 32.9234C27.8999 29.2907 31.0751 26.7962 31.0751 26.7962L29.9858 25.6089ZM42.3703 26.9381L42.3432 26.9709L42.3159 27.0035L42.2561 27.0634L42.1852 27.118L42.1143 27.1723L42.0328 27.2269L41.9512 27.2758L41.8585 27.3249L41.7658 27.3685L41.6733 27.4121L41.5752 27.4557L41.4717 27.4937L41.3682 27.5318L41.2648 27.5644L41.1668 27.6027L41.0631 27.6298L40.9597 27.6626L40.8562 27.6899L40.7582 27.7115L40.6656 27.7333L40.5729 27.7551L40.4859 27.7768L40.3988 27.7934L40.3226 27.8096L40.2517 27.8259L40.1808 27.8369L40.1264 27.8477L40.0991 27.8532L40.0718 27.8585H40.0501L40.0285 27.864H40.012L39.9902 27.8695H39.9794L39.9684 27.875H39.9576H39.9521H39.9468C44.0861 30.1298 45.3767 32.6241 45.3767 32.6241C46.2536 32.3953 48.04 32.3845 48.04 32.3845C46.6729 28.9425 42.3703 26.9381 42.3703 26.9381ZM75.8546 27.3738L75.5279 27.4392L75.577 28.4031L72.7013 31.1753L70.4084 31.6874L69.9998 30.6197L69.6786 30.6798L70.3866 33.8223L70.697 33.7514L70.6153 32.6131L72.8918 32.0957L76.6663 33.2831L76.993 34.0019L77.3144 33.9312L76.7916 31.5947L76.4757 31.6601L76.5248 32.6241L73.453 31.7363L75.8059 29.4218L76.1762 30.3204L76.4921 30.2495L75.8548 27.3739L75.8546 27.3738ZM32.3604 28.5449C32.3604 28.5449 30.2635 30.0099 29.136 33.0054C29.136 33.0054 29.9965 32.9945 30.3941 33.0653C30.7862 33.1524 31.4017 33.1632 31.4017 33.1632H31.4021L31.4292 33.0272L31.4673 32.8909L31.5109 32.7494L31.5655 32.6131L31.6253 32.4716L31.6852 32.33L31.7561 32.194L31.8268 32.0524L31.9031 31.9162L31.9848 31.7799L32.0665 31.6438L32.1535 31.5131L32.2406 31.3823L32.3278 31.2571L32.415 31.1373L32.5019 31.0174L32.5891 30.9031L32.6763 30.7888L32.7579 30.6852L32.8396 30.5872L32.9158 30.4945L32.9922 30.4021L33.0628 30.3204L33.1282 30.2495L33.1881 30.1788L33.2427 30.1243L33.2863 30.0699L33.3081 30.0481L33.3244 30.0263L33.3462 30.01L33.3569 29.9935L33.3735 29.9772L33.3842 29.9664L33.3897 29.9609L33.395 29.9554L33.4005 29.9501L32.3604 28.5449ZM0.984261 29.0405C0.826323 29.4816 0.564962 29.9011 0.466932 30.3695C0.167384 31.6874 0.793629 32.657 1.80115 32.8749C4.18662 33.4141 4.37728 30.1572 5.98395 30.5165C6.81179 30.6908 7.07312 31.377 6.89334 32.1559C6.81165 32.5643 6.43589 33.2614 5.99474 33.3648C5.69519 33.452 5.26505 33.4631 4.74762 33.4249L4.75842 33.7624L6.34342 34.0021C6.78458 33.6046 7.12222 32.8258 7.26382 32.1776C7.5797 30.7998 6.90443 29.8301 5.71716 29.5633C3.82731 29.1385 3.56038 32.3845 1.76305 31.987C1.04414 31.8181 0.722738 31.2189 0.875236 30.5272C1.05496 29.7212 1.71396 29.5524 2.44919 29.5524L2.47098 29.231L0.984128 29.0404L0.984261 29.0405ZM70.399 45.08L69.642 47.3892L69.9579 47.4982L70.399 46.6487L74.9303 48.1027L68.4819 51.0166L67.9427 52.694L68.2531 52.7975L68.7106 51.9477L74.1841 53.6961L74.0588 54.6546L74.3692 54.7525L75.1208 52.3779L74.8104 52.2854L74.3529 53.1732L69.5383 51.6264C70.9653 50.9674 75.5458 48.8923 76.4334 48.4947L76.575 48.0373L70.5786 46.1257L70.7093 45.1727L70.399 45.08ZM0.326686 45.2609L0 45.3422L0.604503 47.6733L0.925902 47.5861L0.84423 46.6276L2.9736 46.8182L3.5891 49.1929L1.84626 50.5L1.45398 49.6232L1.12729 49.7049L1.82446 52.4062L2.15115 52.3245L2.10227 51.4966L7.62471 47.3192L7.51045 46.84L0.686187 46.0176L0.326699 45.2605L0.326686 45.2609ZM43.0918 45.9418L43.0755 65.7502L45.1669 65.2655L45.1779 45.9424H43.0918L43.0918 45.9418ZM47.1875 45.9418L47.2256 64.7536L49.2899 64.1546L49.2789 45.9419L47.1875 45.9418ZM51.5064 45.9418V63.3972C51.5064 63.3972 53.5924 63.4571 53.5924 60.3309V45.9424H51.5064V45.9418ZM26.3062 45.9799V60.3631C26.3062 63.4566 28.3812 63.4348 28.3812 63.4348V45.9794H26.3062V45.9799ZM30.6251 45.9799V64.2738L32.7056 64.7638V45.9803H30.6251V45.9799ZM34.7208 45.9799L34.7316 65.303L36.8066 65.8203V45.9794H34.7207L34.7208 45.9799ZM38.7999 45.9799V66.2617L39.8403 67.3457L40.8751 66.2835L40.8859 45.98H38.7999L38.7999 45.9799ZM3.49128 46.8895L6.24703 47.1889L3.99762 48.8829L3.49128 46.8895ZM8.30046 50.2008L8.01164 50.3423L8.28396 51.2682L3.16993 53.877L2.59273 53.1037L2.29313 53.256L3.86166 56.3496C4.85834 58.3048 6.56303 59.3941 8.83963 58.2341C11.0072 57.1394 10.8547 55.2113 9.9289 53.4031L8.30046 50.2008ZM8.79049 52.069C9.00288 52.4176 9.19898 52.7663 9.3787 53.1257C10.2882 54.9121 10.0378 56.4806 8.04448 57.4882C6.40509 58.3269 5.027 57.7767 4.26998 56.3008L4.2211 56.1973L4.17202 56.0993L4.12843 56.0012L4.08484 55.8977L4.04126 55.7997L4.00317 55.7016L3.96509 55.6036L3.927 55.5056L3.85612 55.3095L3.82353 55.206L3.78524 55.1079L3.75265 55.0044L3.72007 54.9009L3.68177 54.792L3.64919 54.6832L8.79049 52.069ZM68.6937 54.3129C67.6122 54.3388 66.6103 54.9252 65.8407 56.1702C64.7296 57.9676 65.2307 59.8028 67.1043 60.9684C68.7599 61.9868 70.6389 61.769 71.9459 59.6722L72.0439 59.5033L72.1311 59.3345L72.2128 59.1709L72.2836 59.0021L72.349 58.8332L72.4034 58.6699L72.447 58.501L72.4851 58.3375L72.5124 58.1741L72.5341 58.0108L72.5504 57.8475V57.6894L72.5449 57.5261L72.5341 57.368L72.5124 57.2157L72.4851 57.0631L72.447 56.9106L72.4034 56.7582L72.3543 56.6112L72.2944 56.4696L72.2238 56.3279L72.1474 56.1918L72.0657 56.0556L71.9732 55.9248L71.8751 55.7996L71.7661 55.6743L71.6571 55.5545L71.5319 55.4348L71.4066 55.3258L71.2706 55.2168L71.129 55.1134L70.9765 55.0152V55.0156C70.2109 54.5399 69.4336 54.2952 68.6937 54.3129ZM68.3112 55.2291C68.9516 55.2148 69.6552 55.3984 70.35 55.8321L70.4752 55.9138L70.5952 55.9901L70.715 56.0771L70.8292 56.1588L70.9382 56.2459L71.0471 56.3386L71.1506 56.4311L71.2488 56.5238L71.3467 56.6217L71.4339 56.7254L71.5211 56.8234L71.5973 56.9268L71.6734 57.0358L71.7443 57.1448L71.8042 57.2537L71.8588 57.368L71.9077 57.4824L71.9512 57.5967L71.984 57.7167L72.0111 57.8364L72.0329 57.9617L72.0439 58.0869V58.2122L72.0384 58.3429L72.0276 58.4737L72.0058 58.6042L71.973 58.735L71.9295 58.8713L71.8751 59.0075L71.8152 59.1491L71.7388 59.2906L71.6571 59.4322C70.7694 60.8699 69.081 60.9896 67.2728 59.8623C65.775 58.9364 65.3666 57.6239 66.1345 56.3984C66.5743 55.6935 67.3751 55.2498 68.3111 55.229L68.3112 55.2291ZM11.8951 57.2863L11.6446 57.515L12.2058 58.3863L7.53264 61.7795L6.85726 61.2784L6.60674 61.5071L8.13184 63.1954L8.37135 62.9777L7.90311 62.1988L12.1456 59.0672L12.1621 59.0617L12.1729 59.0672L9.5478 64.7042L9.61868 64.8022L15.5878 62.7272L15.6096 62.7162L15.6261 62.7272L11.9335 66.7084L11.1762 66.1202L10.9367 66.3381L12.794 68.4077L13.0335 68.1952L12.5543 67.4164L16.4647 63.1466H16.4649L17.2437 63.7674L17.4832 63.5442L16.1054 62.0083L11.0184 63.7619L13.3005 58.8548L11.8951 57.2863ZM63.7818 59.2305L61.9137 61.3601L62.1532 61.5778L62.9048 60.9788L67.2347 64.7804L66.7337 65.5918L66.9679 65.8097L68.8523 63.6746L68.6018 63.4569L67.8558 64.0614L63.5314 60.2709L64.0214 59.4429L63.7818 59.2305ZM61.2764 62.0192L56.3586 66.0004L57.2354 67.4162L57.5022 67.1985L57.0936 66.1419C57.3115 65.9512 57.5458 65.7335 57.8126 65.5211L58.7493 64.764L62.3331 69.2027L61.5979 70.0033L61.8158 70.2593L64.2122 68.3149L64.0106 68.0644L63.0739 68.5982L59.4792 64.1648L60.4377 63.397C60.7154 63.1683 60.9986 62.9667 61.2546 62.787L62.1044 63.4842L62.3767 63.2555L61.2764 62.0192ZM18.1744 64.0125L17.9838 64.263L18.6426 64.9709L15.1898 69.5731L14.3292 69.1427L14.1386 69.3932L16.4042 71.109L16.6059 70.842L15.9468 70.1395L19.3997 65.5318H19.3999L20.2494 65.973L20.4563 65.7117L18.1744 64.0125ZM21.0554 66.2182L20.9083 66.5176L21.6927 67.0677L19.171 72.2471V72.2474L18.2506 71.9803L18.1091 72.2799L20.3474 73.3584L20.489 73.0751L19.6776 72.4979L21.8941 67.9448C22.3353 69.4535 23.7405 74.2734 24.0019 75.2048L24.4321 75.4225L27.2043 69.7531L28.1247 70.0199L28.261 69.7203L26.066 68.6528L25.9191 68.9524L26.7032 69.5023L24.6174 73.7941L22.6512 66.9861L21.0555 66.2183L21.0554 66.2182ZM53.9189 67.3455L53.4723 67.5795L54.2619 74.4037L53.6194 74.9321L53.7719 75.2207L55.9068 74.0934L55.749 73.7938L54.8394 74.1044L54.5125 71.9966H54.5127L56.6857 70.8312L58.3631 72.209L57.6061 72.8082L57.7531 73.0968L60.2204 71.7789L60.0678 71.4901L59.2617 71.7298L53.9189 67.3455ZM54.1041 68.7234L56.2771 70.5042L54.4526 71.4792L54.1041 68.7234ZM48.4884 69.7305C48.2582 69.732 48.0219 69.7705 47.7918 69.8399L44.7581 70.7385L44.8398 71.0489L45.8473 70.9291L47.4812 76.4407L46.5663 76.8874L46.6645 77.1977L49.4312 76.3863L49.3385 76.0704L48.3908 76.1794L47.7157 73.9137C48.0642 73.8049 48.4017 73.6959 48.6904 73.5761C49.5291 74.2732 50.4497 74.9539 51.4083 75.5912C51.4845 75.6403 51.8547 75.613 52.0834 75.6075L52.8352 75.5802L52.846 75.2644C52.2033 75.199 51.6043 74.7253 51.1249 74.3713L49.4529 73.135C49.9703 72.5086 50.297 71.6698 50.0682 70.8802C49.8149 70.055 49.1789 69.7263 48.4883 69.7307L48.4884 69.7305ZM29.1002 69.8943L29.013 70.2212L29.8899 70.6132L28.4303 76.1901L27.4663 76.1085L27.3846 76.4188L30.1405 77.1378L30.2275 76.8274L29.3506 76.4299L30.8156 70.8584L31.7633 70.9398L31.845 70.6132L29.1001 69.8942L29.1002 69.8943ZM47.7669 70.2857C48.5116 70.2586 49.0247 70.6939 49.268 71.5391C49.6493 72.8354 49.1209 73.0477 47.9827 73.3854L47.9556 73.3909L47.9338 73.4017L47.9065 73.4072L47.8792 73.4127L47.8248 73.429L47.803 73.4345L47.7757 73.4453L47.7487 73.4508L47.7269 73.4563L47.7051 73.4671L47.6778 73.4726L47.656 73.4781L47.645 73.4834H47.6342L47.6287 73.4889H47.6179L47.6069 73.4944H47.5961L46.7356 70.5807C46.8663 70.5044 47.0351 70.439 47.2148 70.3791C47.4109 70.3229 47.595 70.292 47.7669 70.2857ZM44.154 70.8585L37.8634 71.3104L37.7817 72.966L38.1031 72.9387L38.3754 71.8495C38.6695 71.8168 38.991 71.7677 39.3286 71.7405L40.5269 71.6588L40.9352 77.3558L39.8786 77.5953L39.9004 77.9167L42.9832 77.7042L42.9559 77.3666L41.8774 77.2796L41.4581 71.5882L42.6944 71.501C43.0429 71.4792 43.3915 71.4684 43.7019 71.4684L44.0123 72.5196L44.3718 72.4978L44.154 70.8585ZM34.5393 71.0153C33.4681 71.0537 32.767 71.7154 32.6622 72.6065C32.3735 75.0411 35.636 74.8941 35.4399 76.5388C35.331 77.3776 34.6827 77.7044 33.893 77.6063C33.4737 77.5573 32.7549 77.2577 32.5861 76.8275C32.4935 76.5497 32.4226 76.1194 32.4063 75.6074L32.0851 75.64L32.0034 77.2468C32.4337 77.639 33.2451 77.9057 33.9041 77.9765C35.3093 78.1454 36.2079 77.3884 36.3549 76.1793C36.5782 74.235 33.3322 74.3111 33.5446 72.4757C33.6318 71.7567 34.1929 71.3702 34.901 71.4573C35.7179 71.5499 35.9684 72.1979 36.0283 72.9169L36.3549 72.9061L36.404 71.4083C35.9465 71.3103 35.4891 71.0816 35.0206 71.038C34.8532 71.0169 34.6925 71.0097 34.5395 71.0152L34.5393 71.0153Z" fill="#333366"/>
<path d="M39.6191 35.1381C39.3899 35.1338 38.4277 35.1541 37.7033 35.7498C37.7033 35.7498 36.5433 36.5668 36.5161 37.8957C36.5161 37.8957 36.6849 39.5622 37.8722 40.1722C37.8722 40.1722 37.9212 40.3301 39.6967 41.1362C39.6967 41.1362 40.8732 41.4686 40.8569 42.3073C40.8569 42.3073 41.0366 43.3855 39.5988 43.4237C39.5988 43.4237 38.4223 43.5817 37.7906 42.5469C37.2623 41.6973 37.3821 40.9785 37.344 40.8369L36.3855 41.5448L36.3747 43.6742C36.3747 43.6742 37.7526 44.562 39.2884 44.5402C39.2884 44.5402 41.0368 44.5512 41.8755 43.7125C41.8755 43.7125 42.812 43.1623 42.8012 41.6265C42.7903 40.1288 42.2349 39.4098 40.906 38.8107C40.906 38.8107 39.8765 38.4731 39.4462 38.3751C39.4462 38.3751 38.4496 38.0427 38.4822 37.2748C38.5095 36.9481 38.6675 36.1366 39.8766 36.1475C41.5649 36.1693 41.4343 38.0048 41.4343 38.1408L42.4308 37.5036L42.262 35.4503C42.262 35.4503 41.712 35.5376 40.8461 35.2489L40.8243 35.2434L40.8025 35.2381L40.7752 35.2271L40.7479 35.2216L40.7208 35.2163L40.6881 35.2108L40.6555 35.2053L40.6227 35.1998L40.5846 35.1945L40.5465 35.189L40.5084 35.1835L40.4701 35.178L40.432 35.1727H40.3884L40.3068 35.1617L40.2251 35.1562L40.1379 35.151L40.0563 35.1454L39.9691 35.1399H39.931H39.8929H39.8493H39.8112H39.7732H39.7404H39.7078H39.6697C39.6697 35.1399 39.6519 35.1389 39.6191 35.1383L39.6191 35.1381ZM47.9422 35.3428L44.8071 43.2543C44.2416 43.3299 43.8693 43.4506 43.8693 43.4506H43.8795V44.4425H47.4782V43.4506C47.4782 43.4506 47.128 43.3335 46.581 43.2577L47.0211 42.1879H49.875L50.305 43.2543C49.855 43.3362 49.5471 43.4274 49.5263 43.4337H49.5162V43.4371V44.4425H53.5312V43.4506H53.5278C53.5157 43.4465 53.0557 43.2927 52.431 43.2001L49.4891 35.3427H47.942L47.9422 35.3428ZM29.4781 35.4512L25.3242 35.4681V36.4702H25.3378C25.3378 36.4702 25.7643 36.5973 26.3365 36.6936C26.3319 37.3103 26.3028 41.6553 26.4448 42.0356C26.6027 42.406 26.6424 42.9648 27.2742 43.5421C27.2742 43.5421 28.5084 44.7018 30.382 44.5983C30.382 44.5983 32.3707 44.6692 33.351 43.471C33.351 43.471 34.2179 42.7927 34.2887 41.4094V36.6699C34.9009 36.5973 35.3077 36.4701 35.3077 36.4701H35.2976V35.4511H31.6853V36.4701C31.6853 36.4701 32.0193 36.5754 32.5384 36.6495V41.4263C32.5384 41.4263 32.6919 43.3624 30.497 43.5421C30.497 43.5421 28.6181 43.6532 28.6181 41.4093V36.68C29.1203 36.5854 29.4712 36.4701 29.4712 36.4701H29.478L29.4781 35.4512ZM48.4232 38.505L49.3711 40.9662H47.4922L48.4228 38.5049L48.4232 38.505Z" fill="#CC3333"/>
</svg>
