<svg width="90" height="57" viewBox="0 0 90 57" fill="none" xmlns="http://www.w3.org/2000/svg">
<path d="M27.8489 7.1092C27.4912 6.76653 27.0549 6.49486 26.5568 6.32506C24.7797 5.71844 22.8629 6.62992 22.1665 8.36489C22.0796 8.32785 21.9919 8.28926 21.9011 8.25916C20.8905 7.91417 19.8287 8.10789 19.021 8.68673C19.4123 11.0893 19.722 13.0334 20.0942 15.3125C20.1148 15.2917 21.6601 14.5971 23.6066 14.8942C23.6249 14.3539 23.5394 14.0993 23.4616 13.5775C24.309 12.8868 24.7636 12.5734 25.6522 12.7201C26.1068 11.3193 27.1396 8.6219 27.8489 7.1092Z" fill="#40BB61"/>
<path d="M27.8411 7.11115C27.4826 6.76771 27.0471 6.49681 26.549 6.32702C24.7718 5.7204 22.8543 6.63187 22.1587 8.36685C22.0718 8.3298 21.984 8.29121 21.8933 8.26111C20.8819 7.91612 19.8209 8.10984 19.0132 8.68868C19.4045 11.0905 19.7141 13.0354 20.0856 15.3145C20.1069 15.2936 21.6515 14.599 23.5988 14.8961C23.6171 14.3551 23.5476 14.0997 23.4698 13.5779C24.3645 12.8563 24.723 12.6024 25.6444 12.7213C26.099 11.3205 27.1317 8.62385 27.8411 7.11115Z" fill="#40BB61"/>
<path d="M34.6026 12.1604C35.0992 10.8808 35.6834 10.518 35.9039 10.3598C36.8466 9.74548 38.1341 9.68065 39.0936 9.4113C39.5017 5.01675 38.861 1.95277 36.3821 1.28286C36.0877 1.20259 35.7956 1.164 35.5057 1.164C34.5286 1.164 33.5829 1.61009 32.6752 2.40889C33.097 2.86965 34.0397 4.02038 34.1747 5.25137C33.4852 4.15004 32.6073 3.4153 32.0505 3.02092C31.5837 3.52412 31.1284 4.11917 30.6852 4.79602C30.8652 4.99746 32.8628 7.27191 33.068 9.19134C32.1298 7.62847 30.9308 6.41291 30.1299 5.69361C29.6654 6.49086 29.2162 7.3761 28.7814 8.33311C29.4267 9.05396 31.1474 11.1347 31.377 13.0325C30.1505 11.1154 28.86 10.102 28.2033 9.66984C27.6816 10.9348 27.182 12.3124 26.7129 13.7518C26.777 13.9239 26.8593 14.3608 26.7678 14.8169C27.4665 14.8678 28.0195 15.0314 28.6068 15.4034C29.1613 15.7531 29.5724 16.166 30.1978 17.0551C29.3474 18.3439 28.9881 18.4836 28.6945 18.6743C29.0942 19.4661 29.4206 20.1677 29.5449 21.624C30.2985 21.5214 30.5746 21.5962 30.7676 21.6194C31.7172 19.2554 33.2778 15.4019 34.6026 12.1604Z" fill="#F47216"/>
<path d="M15.723 16.6956C15.723 16.6956 17.6016 14.391 15.1372 12.8899C15.9335 12.6731 17.2248 13.1022 17.4307 14.5068C17.623 16.3244 15.723 16.6956 15.723 16.6956ZM14.0694 6.76196C14.8657 6.54586 16.157 6.97497 16.3629 8.37884C16.5559 10.1972 14.6552 10.5684 14.6552 10.5684C14.6552 10.5684 16.5338 8.26385 14.0694 6.76196ZM16.2935 18.906C17.2042 16.8561 18.9654 15.8682 18.9654 15.8682L17.1874 4.5315L17.1851 4.51452C17.1836 4.51143 17.1829 4.50834 17.1806 4.50294C17.1714 4.47824 17.1501 4.43194 17.0906 4.37097C16.9754 4.25443 16.6779 4.04064 15.8755 4.0036C14.1922 3.93259 9.31142 3.63777 8.62038 3.59532C8.61276 3.59764 8.60437 3.59995 8.59521 3.60304C8.53953 3.62002 8.46326 3.65166 8.39614 3.69411C8.26037 3.79521 8.17876 3.85618 8.16045 4.12862C8.16122 4.35399 8.30919 5.76404 8.52733 7.61092C8.74929 9.50565 9.04599 11.9252 9.34269 14.3092C9.49982 15.575 9.65694 16.8291 9.80339 17.9891C11.3327 17.6735 12.2838 18.338 12.2838 18.338L10.9292 6.79205C10.9002 6.5474 11.0741 6.32435 11.3159 6.2958C11.5584 6.26647 11.7781 6.44166 11.8063 6.68632L13.2609 19.0874C13.2609 19.0874 13.4523 19.2734 13.5484 19.3945C14.9984 18.6173 16.1066 18.872 16.2935 18.906ZM4.58398 6.46868C4.71823 8.06936 4.83187 8.87433 4.83187 8.87433C4.83187 8.87433 4.72051 9.34898 5.88826 9.65152C6.38862 9.78118 6.88287 9.88846 7.28559 9.96872C6.67312 10.3701 5.86767 11.0261 5.46342 11.9013C5.59842 13.5012 5.68461 14.2915 5.68461 14.2915C5.68461 14.2915 5.75936 14.8472 6.741 15.0687C7.29399 15.1937 7.83477 15.3072 8.25427 15.3936C7.9118 15.5657 6.89736 16.1307 6.20098 17.0082C7.66773 17.2914 8.34809 18.1944 8.60132 18.3804C8.6242 18.3758 8.64403 18.3758 8.65623 18.3711C8.44267 16.6153 7.17729 6.20627 6.93092 4.24825C6.35658 4.55311 5.11409 5.31794 4.58398 6.46868Z" fill="#6243A4"/>
<path d="M50.0219 26.1563C50.5109 26.3021 50.8777 26.6904 50.8777 27.0554C50.8777 27.3819 50.6329 27.5617 50.3827 27.5617C50.2218 27.5617 50.0608 27.4884 49.9609 27.314C49.9388 27.2692 49.9167 27.2183 49.8946 27.1735C49.8717 27.1395 49.8496 27.1009 49.8221 27.0724C49.6497 26.8926 49.3111 26.8872 49.2554 26.8872C48.9556 26.8872 48.7444 27.0052 48.7444 27.2129C48.7444 27.3595 48.8725 27.4212 48.9999 27.466C49.1608 27.5223 49.9884 27.7299 50.1722 27.7971C50.6939 28.0001 51.0051 28.3937 51.0051 28.8876C51.0051 29.1292 50.9327 29.4333 50.7443 29.6748C50.4163 30.0908 49.8778 30.2197 49.3553 30.2197C48.6719 30.2197 48.1609 30.0847 47.8283 29.742C47.5888 29.5004 47.5225 29.2079 47.5225 29.0451C47.5225 28.7248 47.7559 28.5172 48.0282 28.5172C48.1006 28.5172 48.167 28.528 48.2333 28.5565C48.3836 28.6291 48.456 28.7533 48.4949 28.8483C48.5224 28.8992 48.5392 28.9555 48.5613 29.0111C48.6002 29.079 48.6444 29.1462 48.7116 29.1971C48.9114 29.3546 49.244 29.3654 49.3164 29.3654C49.6497 29.3654 49.9052 29.2195 49.9052 29.0003C49.9052 28.7811 49.7001 28.7194 49.2333 28.5959C48.4721 28.3875 48.2943 28.3373 48.061 28.1459C47.7505 27.899 47.6613 27.5555 47.6613 27.297C47.6613 26.7467 48.0777 26.0552 49.2112 26.0552C49.4835 26.0552 49.7611 26.0776 50.0219 26.1563Z" fill="#024D36"/>
<path d="M54.5384 29.9057C54.5323 29.9844 54.5217 30.0685 54.4164 30.1248C54.3439 30.1588 54.2379 30.1588 54.1601 30.1248C54.0442 30.0631 54.0442 29.9728 54.0442 29.7482C53.8047 30.0685 53.5659 30.1758 53.1609 30.1758C53.0275 30.1758 52.672 30.1642 52.4218 29.8887C52.1831 29.6193 52.1831 29.2597 52.1831 28.995V27.4329C52.1831 27.3595 52.2052 27.1743 52.4386 27.1743C52.672 27.1743 52.6995 27.3541 52.6995 27.4275V28.8267C52.6995 29.2033 52.7163 29.3608 52.7887 29.4951C52.9161 29.7312 53.1777 29.7312 53.2441 29.7312C53.6056 29.7312 53.9107 29.512 53.9938 29.1354C54.0274 28.995 54.0221 28.8715 54.0221 28.6639V27.4329C54.0221 27.3595 54.0442 27.1743 54.2768 27.1743C54.5156 27.1743 54.5384 27.3595 54.5384 27.4329V29.9057Z" fill="#024D36"/>
<path d="M57.2825 27.5785C56.7601 27.5785 56.4771 27.9829 56.4771 28.6297C56.4771 29.2818 56.7441 29.7596 57.2772 29.7596C57.5709 29.7596 57.76 29.6075 57.866 29.4617C58.0216 29.2479 58.0544 28.933 58.0544 28.669C58.0544 28.3711 58.0323 27.5785 57.2825 27.5785ZM55.9722 27.4272C55.9722 27.3539 55.9935 27.1741 56.2269 27.1741C56.249 27.1741 56.3047 27.1741 56.3604 27.2019C56.4885 27.2636 56.4885 27.3709 56.4885 27.5391C56.7105 27.2698 56.9881 27.1455 57.3436 27.1455C58.0544 27.1455 58.5823 27.6966 58.5823 28.6575C58.5823 29.3544 58.2825 30.1756 57.4046 30.1756C56.9439 30.1756 56.7273 29.9896 56.4885 29.7758V30.9512C56.4885 31.0238 56.4657 31.209 56.2269 31.209C56.1827 31.209 56.1384 31.1982 56.0995 31.1812C55.9882 31.1195 55.9722 31.0353 55.9722 30.9512V27.4272Z" fill="#024D36"/>
<path d="M61.1873 27.5785C60.6656 27.5785 60.3819 27.9829 60.3819 28.6297C60.3819 29.2818 60.6488 29.7596 61.182 29.7596C61.4764 29.7596 61.6648 29.6075 61.7708 29.4617C61.9264 29.2479 61.9592 28.933 61.9592 28.669C61.9592 28.3711 61.9371 27.5785 61.1873 27.5785ZM59.877 27.4272C59.877 27.3539 59.8991 27.1741 60.1317 27.1741C60.1546 27.1741 60.2095 27.1741 60.2659 27.2019C60.3933 27.2636 60.3933 27.3709 60.3933 27.5391C60.6153 27.2698 60.8929 27.1455 61.2484 27.1455C61.9592 27.1455 62.487 27.6966 62.487 28.6575C62.487 29.3544 62.1873 30.1756 61.3094 30.1756C60.8487 30.1756 60.6321 29.9896 60.3933 29.7758V30.9512C60.3933 31.0238 60.3712 31.209 60.1317 31.209C60.0875 31.209 60.0432 31.1982 60.0043 31.1812C59.8937 31.1195 59.877 31.0353 59.877 30.9512V27.4272Z" fill="#024D36"/>
<path d="M64.2872 29.9002C64.2872 29.9673 64.2643 30.1533 64.0309 30.1533C63.8868 30.1533 63.7754 30.0692 63.7754 29.9002V26.3654C63.7754 26.2975 63.8036 26.1177 64.0309 26.1177C64.2643 26.1177 64.2872 26.2975 64.2872 26.3654V29.9002Z" fill="#024D36"/>
<path d="M67.6974 28.3819C67.6753 28.0107 67.4754 27.6009 66.9476 27.6009C66.8309 27.6009 66.6036 27.6117 66.4091 27.7861C66.1872 27.9829 66.1368 28.2531 66.1094 28.3819H67.6974ZM66.1033 28.8033C66.1147 29.0565 66.1704 29.2811 66.3199 29.4671C66.509 29.7025 66.7371 29.7418 66.959 29.7418C67.3976 29.7418 67.5532 29.5118 67.6531 29.3544C67.7424 29.2024 67.7698 29.146 67.8919 29.146C68.0147 29.146 68.1809 29.2193 68.1809 29.3822C68.1809 29.4046 68.1809 29.4215 68.1756 29.4385C68.1527 29.545 68.0589 29.6693 67.9979 29.7364C67.6142 30.1748 67.1146 30.1748 66.959 30.1748C66.5975 30.1748 66.2314 30.1015 65.9477 29.7812C65.6982 29.4949 65.5815 29.0904 65.5815 28.6853C65.5815 27.9775 65.9591 27.151 66.9423 27.151C67.0643 27.151 67.1863 27.1625 67.303 27.1903C67.5532 27.2521 67.7698 27.3763 67.9422 27.6117C68.1253 27.8703 68.2198 28.2361 68.2198 28.551C68.2198 28.7864 68.0421 28.8033 67.9697 28.8033H66.1033Z" fill="#024D36"/>
<path d="M69.5088 27.4158C69.5088 27.3371 69.5256 27.253 69.6308 27.202C69.6918 27.1688 69.8192 27.1573 69.8978 27.202C70.0137 27.2584 70.0137 27.3487 70.0137 27.5393C70.2303 27.2699 70.4752 27.1464 70.8245 27.1464C70.9915 27.1464 71.1586 27.1742 71.3027 27.2584C71.5026 27.3649 71.5804 27.5223 71.6193 27.601C71.8359 27.3371 72.0975 27.1464 72.5193 27.1464C72.7969 27.1464 73.0799 27.1966 73.2859 27.4444C73.4743 27.6743 73.4857 27.9329 73.4857 28.2138V29.8948C73.4857 29.9673 73.4636 30.1533 73.2248 30.1533C73.1798 30.1533 73.1356 30.1417 73.0967 30.1194C72.9853 30.0684 72.9686 29.9789 72.9686 29.8948V28.6352C72.9686 28.467 72.9632 28.3095 72.9632 28.2192C72.9632 28.034 72.9464 27.601 72.4415 27.601C72.1418 27.601 71.9633 27.7646 71.8748 27.8989C71.7528 28.0849 71.7528 28.2702 71.7528 28.5063V29.9002C71.7528 29.9789 71.736 30.0684 71.6307 30.1194C71.5804 30.1471 71.5247 30.1533 71.4972 30.1533C71.4522 30.1533 71.408 30.1417 71.3638 30.1194C71.2585 30.0684 71.2417 29.9789 71.2417 29.9002V28.4778C71.2417 28.2138 71.2417 28.1637 71.2303 28.0788C71.2196 27.9838 71.1746 27.601 70.7254 27.601C70.4973 27.601 70.2921 27.6859 70.1586 27.8989C70.0305 28.1011 70.0252 28.3095 70.0252 28.6128V29.9002C70.0252 29.9395 70.0137 29.9843 69.9977 30.0237C69.9756 30.0746 69.9031 30.1533 69.7696 30.1533C69.5309 30.1533 69.5088 29.9673 69.5088 29.9002V27.4158Z" fill="#024D36"/>
<path d="M76.8961 28.3819C76.874 28.0107 76.6741 27.6009 76.1463 27.6009C76.0296 27.6009 75.8023 27.6117 75.6078 27.7861C75.3851 27.9829 75.3355 28.2531 75.3081 28.3819H76.8961ZM75.302 28.8033C75.3134 29.0565 75.3691 29.2811 75.5186 29.4671C75.7078 29.7025 75.9358 29.7418 76.1578 29.7418C76.5963 29.7418 76.7519 29.5118 76.8519 29.3544C76.9411 29.2024 76.9686 29.146 77.0906 29.146C77.2126 29.146 77.3797 29.2193 77.3797 29.3822C77.3797 29.4046 77.3797 29.4215 77.3743 29.4385C77.3515 29.545 77.2576 29.6693 77.1966 29.7364C76.813 30.1748 76.3134 30.1748 76.1578 30.1748C75.7962 30.1748 75.4301 30.1015 75.1464 29.7812C74.8962 29.4949 74.7803 29.0904 74.7803 28.6853C74.7803 27.9775 75.1578 27.151 76.141 27.151C76.263 27.151 76.3851 27.1625 76.5018 27.1903C76.7519 27.2521 76.9686 27.3763 77.1409 27.6117C77.324 27.8703 77.4186 28.2361 77.4186 28.551C77.4186 28.7864 77.2409 28.8033 77.1684 28.8033H75.302Z" fill="#024D36"/>
<path d="M78.707 27.421C78.707 27.3423 78.7238 27.2582 78.8291 27.2018C78.9015 27.1679 79.0182 27.1679 79.0846 27.2018C79.2066 27.2636 79.2066 27.3477 79.2066 27.573C79.4347 27.2636 79.7238 27.1516 80.1013 27.1516C80.4011 27.1516 80.684 27.2412 80.8679 27.4719C81.0563 27.7135 81.0624 28.0114 81.0624 28.3093V29.8992C81.0624 29.9725 81.0395 30.1523 80.8068 30.1523C80.7626 30.1523 80.7176 30.1415 80.6734 30.1246C80.5681 30.0682 80.5513 29.9787 80.5513 29.8992V28.5733C80.5513 28.2754 80.5399 28.2082 80.5399 28.1573C80.5399 28.0052 80.5071 27.5954 79.99 27.5954C79.485 27.5954 79.3012 27.9775 79.2455 28.236C79.212 28.3819 79.2181 28.5285 79.2181 28.6798V29.8992C79.2181 29.9725 79.1959 30.1523 78.9625 30.1523C78.9183 30.1523 78.8733 30.1415 78.8291 30.1246C78.7238 30.0682 78.707 29.9841 78.707 29.8992V27.421Z" fill="#024D36"/>
<path d="M82.5347 27.6466H82.2403C82.1793 27.6466 82.0298 27.6242 82.0298 27.4274C82.0298 27.2252 82.1793 27.2082 82.2403 27.2082H82.5401V26.5506C82.5401 26.4773 82.5629 26.3091 82.7902 26.3091C83.029 26.3091 83.0457 26.4719 83.0457 26.5506V27.2082H83.3905C83.4569 27.2082 83.601 27.2252 83.601 27.4274C83.601 27.6242 83.4515 27.6466 83.3905 27.6466H83.0457V29.0744C83.0457 29.4116 83.0511 29.451 83.0679 29.5181C83.1068 29.681 83.2128 29.7095 83.3623 29.7203C83.4958 29.7258 83.6346 29.7373 83.6346 29.9341C83.6346 30.1309 83.4569 30.1533 83.3066 30.1533C82.5347 30.1533 82.5347 29.7319 82.5347 29.2936V27.6466Z" fill="#024D36"/>
<path d="M85.7672 28.7873C85.6726 28.8043 85.5612 28.8321 85.4834 28.8607C85.4003 28.8884 85.1501 28.9726 85.1501 29.2875C85.1501 29.5969 85.3896 29.7544 85.6672 29.7544C85.9838 29.7544 86.195 29.5684 86.2782 29.4565C86.4223 29.2535 86.4284 28.9895 86.433 28.6129C86.3278 28.6585 86.2889 28.6693 86.0555 28.7202L85.7672 28.7873ZM86.9059 29.928C86.8998 29.9898 86.8891 30.1534 86.6832 30.1534C86.5894 30.1472 86.5055 30.114 86.4719 30.0299C86.4559 29.9844 86.4498 29.962 86.4498 29.7598C86.1783 30.114 85.8007 30.1758 85.5559 30.1758C84.9785 30.1758 84.623 29.8161 84.623 29.2821C84.623 28.6129 85.1669 28.5064 85.4666 28.4447L85.9395 28.3436C86.1279 28.3042 86.2278 28.2818 86.2782 28.2648C86.3949 28.2309 86.433 28.1861 86.433 28.0457C86.433 27.5679 85.9555 27.5679 85.8556 27.5679C85.3728 27.5679 85.2889 27.8095 85.2393 27.9615C85.2226 28.0395 85.1951 28.1414 85.0059 28.1414C84.8008 28.1414 84.7451 28.0233 84.7451 27.9222C84.7451 27.8095 84.8175 27.669 84.8618 27.5957C85.0837 27.253 85.4727 27.1519 85.8556 27.1519C86.1783 27.1519 86.5116 27.2137 86.7168 27.4552C86.9059 27.6798 86.9059 27.9669 86.9059 28.2425V29.928Z" fill="#024D36"/>
<path d="M88.8499 29.9002C88.8499 29.9673 88.8278 30.1533 88.5944 30.1533C88.4502 30.1533 88.3389 30.0692 88.3389 29.9002V26.3654C88.3389 26.2975 88.3671 26.1177 88.5944 26.1177C88.8278 26.1177 88.8499 26.2975 88.8499 26.3654V29.9002Z" fill="#024D36"/>
<path d="M47.6782 33.5058C47.6782 33.3878 47.695 33.2079 47.8392 33.0675C47.9726 32.944 48.1397 32.9324 48.2892 32.9324C48.6057 32.9324 48.7171 33.0335 48.8391 33.2357C49.0389 33.5676 49.2334 33.8995 49.4279 34.2306C49.6613 34.6357 49.8833 35.0456 50.1114 35.4507L50.0663 33.5058C50.0663 33.3939 50.0778 33.2813 50.1502 33.1632C50.2776 32.944 50.4942 32.9324 50.572 32.9324C50.7055 32.9324 50.8329 32.9779 50.9443 33.0899C51.0945 33.2527 51.0945 33.4441 51.0999 33.5846V36.4C51.0999 36.5351 51.0884 37.0128 50.5278 37.0128C50.344 37.0128 50.1167 36.9457 49.833 36.5467C49.6331 36.2657 49.0557 35.237 48.6667 34.5454L48.7117 36.4116C48.7056 36.5351 48.7056 36.6586 48.6278 36.7882C48.5332 36.9395 48.367 37.0244 48.2007 37.0244C48.1229 37.0244 48.0337 37.0013 47.9559 36.9565C47.695 36.816 47.6782 36.5521 47.6782 36.3445V33.5058Z" fill="#024D36"/>
<path d="M54.5438 36.7543C54.5385 36.833 54.527 36.9171 54.4218 36.9735C54.3493 37.0074 54.244 37.0074 54.1663 36.9735C54.0496 36.9117 54.0496 36.8222 54.0496 36.5976C53.8108 36.9171 53.5713 37.0244 53.1663 37.0244C53.0328 37.0244 52.6774 37.0136 52.428 36.7373C52.1885 36.468 52.1885 36.1083 52.1885 35.8444V34.2815C52.1885 34.2089 52.2106 34.0229 52.444 34.0229C52.6774 34.0229 52.7048 34.2028 52.7048 34.2761V35.6753C52.7048 36.052 52.7216 36.2094 52.7941 36.3445C52.9215 36.5806 53.1831 36.5806 53.2494 36.5806C53.611 36.5806 53.9161 36.3615 54 35.984C54.0328 35.8444 54.0274 35.7201 54.0274 35.5125V34.2815C54.0274 34.2089 54.0496 34.0229 54.2822 34.0229C54.5217 34.0229 54.5438 34.2089 54.5438 34.2815V36.7543Z" fill="#024D36"/>
<path d="M56.0159 34.4952H55.7215C55.6605 34.4952 55.5103 34.4728 55.5103 34.276C55.5103 34.0738 55.6605 34.0568 55.7215 34.0568H56.0213V33.3993C56.0213 33.3259 56.0442 33.1577 56.2715 33.1577C56.5102 33.1577 56.527 33.3205 56.527 33.3993V34.0568H56.871C56.9381 34.0568 57.0823 34.0738 57.0823 34.276C57.0823 34.4728 56.932 34.4952 56.871 34.4952H56.527V35.923C56.527 36.2603 56.5323 36.2996 56.5491 36.3668C56.588 36.5304 56.694 36.5582 56.8435 36.569C56.977 36.5752 57.1158 36.586 57.1158 36.7828C57.1158 36.9796 56.9381 37.002 56.7878 37.002C56.0159 37.002 56.0159 36.5806 56.0159 36.1422V34.4952Z" fill="#024D36"/>
<path d="M58.7489 34.5506C58.8549 34.2303 59.1715 34.0227 59.4987 34.0227C59.5597 34.0227 59.8046 34.0227 59.8046 34.275C59.8046 34.4718 59.649 34.5058 59.5712 34.5166C59.4323 34.539 59.2874 34.5621 59.1379 34.6571C58.771 34.9156 58.771 35.3092 58.771 35.6465V36.7648C58.771 36.8543 58.755 37.001 58.5155 37.001C58.2882 37.001 58.2661 36.8435 58.2661 36.7648V34.2588C58.2661 34.1909 58.2882 34.0227 58.5102 34.0227C58.7268 34.0227 58.7489 34.1909 58.7489 34.2588V34.5506Z" fill="#024D36"/>
<path d="M61.4046 36.7488C61.4046 36.7936 61.3932 36.8383 61.3764 36.8723C61.3543 36.9232 61.2879 37.002 61.1544 37.002C61.0042 37.002 60.8989 36.9063 60.8989 36.7488V34.2698C60.8989 34.2027 60.921 34.0229 61.1491 34.0229C61.3817 34.0229 61.4046 34.2027 61.4046 34.2698V36.7488ZM61.1491 32.9663C61.31 32.9663 61.4603 33.079 61.4603 33.2866C61.4603 33.478 61.3375 33.5961 61.1491 33.5961C60.9493 33.5961 60.8379 33.461 60.8379 33.2866C60.8379 33.0844 60.9767 32.9663 61.1491 32.9663Z" fill="#024D36"/>
<path d="M62.8763 34.4952H62.5819C62.5209 34.4952 62.3706 34.4728 62.3706 34.276C62.3706 34.0738 62.5209 34.0568 62.5819 34.0568H62.8816V33.3993C62.8816 33.3259 62.9038 33.1577 63.1318 33.1577C63.3706 33.1577 63.3873 33.3205 63.3873 33.3993V34.0568H63.7313C63.7977 34.0568 63.9426 34.0738 63.9426 34.276C63.9426 34.4728 63.7923 34.4952 63.7313 34.4952H63.3873V35.923C63.3873 36.2603 63.3927 36.2996 63.4095 36.3668C63.4484 36.5304 63.5536 36.5582 63.7039 36.569C63.8373 36.5752 63.9762 36.586 63.9762 36.7828C63.9762 36.9796 63.7977 37.002 63.6482 37.002C62.8763 37.002 62.8763 36.5806 62.8763 36.1422V34.4952Z" fill="#024D36"/>
<path d="M65.6312 36.7488C65.6312 36.7936 65.6205 36.8383 65.6037 36.8723C65.5816 36.9232 65.5145 37.002 65.381 37.002C65.2315 37.002 65.1262 36.9063 65.1262 36.7488V34.2698C65.1262 34.2027 65.1476 34.0229 65.3756 34.0229C65.609 34.0229 65.6312 34.2027 65.6312 34.2698V36.7488ZM65.3756 32.9663C65.5373 32.9663 65.6868 33.079 65.6868 33.2866C65.6868 33.478 65.5648 33.5961 65.3756 33.5961C65.1758 33.5961 65.0645 33.461 65.0645 33.2866C65.0645 33.0844 65.2033 32.9663 65.3756 32.9663Z" fill="#024D36"/>
<path d="M68.942 36.3041C69.1365 36.051 69.1471 35.6913 69.1471 35.5169C69.1471 34.972 68.9694 34.4264 68.2921 34.4264C68.1419 34.4264 67.8474 34.4495 67.6362 34.7474C67.492 34.9612 67.4478 35.2584 67.4478 35.5231C67.4478 35.8094 67.4973 36.1189 67.6529 36.3211C67.7643 36.4616 67.9809 36.6074 68.2975 36.6074C68.5476 36.6074 68.7917 36.5063 68.942 36.3041ZM69.3081 36.6136C68.9694 36.9895 68.553 37.0234 68.286 37.0234C67.9977 37.0234 67.598 36.9841 67.2807 36.6298C66.9367 36.2478 66.9253 35.7307 66.9253 35.5231C66.9253 35.253 66.9535 34.7814 67.27 34.4156C67.614 34.0281 68.0755 33.9942 68.3142 33.9942C69.1311 33.9942 69.675 34.5229 69.675 35.4837C69.675 35.7361 69.6467 36.2308 69.3081 36.6136Z" fill="#024D36"/>
<path d="M70.9692 34.2696C70.9692 34.1909 70.986 34.1068 71.0913 34.0504C71.1637 34.0165 71.2797 34.0165 71.3468 34.0504C71.4688 34.1122 71.4688 34.1963 71.4688 34.4217C71.6969 34.1122 71.986 33.9995 72.3635 33.9995C72.6633 33.9995 72.9462 34.0898 73.1293 34.3206C73.3185 34.5621 73.3246 34.86 73.3246 35.158V36.7486C73.3246 36.8212 73.3017 37.001 73.0683 37.001C73.024 37.001 72.9798 36.9894 72.9356 36.9732C72.8303 36.9169 72.8135 36.8273 72.8135 36.7486V35.4219C72.8135 35.124 72.8021 35.0569 72.8021 35.0059C72.8021 34.8539 72.7685 34.4441 72.2522 34.4441C71.7465 34.4441 71.5634 34.8261 71.5077 35.0846C71.4742 35.2305 71.4803 35.3764 71.4803 35.5284V36.7486C71.4803 36.8212 71.4582 37.001 71.2248 37.001C71.1798 37.001 71.1355 36.9894 71.0913 36.9732C70.986 36.9169 70.9692 36.8327 70.9692 36.7486V34.2696Z" fill="#024D36"/>
<path d="M49.2056 40.8716L48.8166 42.2315H49.5999L49.2056 40.8716ZM48.4497 40.2588C48.5664 39.9215 48.7274 39.832 49.1278 39.8204C49.6724 39.8204 49.8333 39.849 49.9943 40.3035L50.9385 42.9955C50.9774 43.1144 51.0163 43.2209 51.0163 43.339C51.0163 43.7156 50.6937 43.873 50.4717 43.873C50.394 43.873 50.2666 43.8391 50.1834 43.7827C50.0164 43.6701 49.9607 43.4794 49.905 43.2996L49.844 43.0804H48.5779L48.4947 43.3722C48.4337 43.5805 48.3391 43.873 47.9669 43.873C47.7114 43.873 47.417 43.6986 47.417 43.3444C47.417 43.2263 47.4506 43.1252 47.4834 43.0125L48.4497 40.2588Z" fill="#024D36"/>
<path d="M53.2885 42.125C53.5882 42.2145 54.1267 42.3727 54.1267 42.9847C54.1267 43.3444 53.9437 43.5636 53.7774 43.6762C53.5661 43.8221 53.2717 43.873 53.0162 43.873C52.8552 43.873 52.4609 43.8561 52.1772 43.6145C51.9216 43.3953 51.8721 43.0858 51.8721 43.0071C51.8721 42.8157 52.0605 42.7709 52.1444 42.7709C52.2717 42.7709 52.3053 42.8389 52.3328 42.8944C52.4106 43.1082 52.4159 43.1306 52.4556 43.1931C52.5829 43.3899 52.8163 43.4679 53.0497 43.4679C53.3769 43.4679 53.6218 43.2942 53.6218 43.0295C53.6218 42.7378 53.3655 42.6644 53.0825 42.5803L52.7607 42.4846C52.4556 42.3835 51.9834 42.2261 51.9834 41.6866C51.9834 41.5407 52.0383 40.8492 52.9941 40.8492C53.933 40.8492 54.0825 41.4952 54.0825 41.6079C54.0825 41.7769 53.933 41.827 53.8491 41.827C53.727 41.827 53.6935 41.7653 53.6103 41.6025C53.56 41.5068 53.4105 41.242 52.9712 41.242C52.9048 41.242 52.7553 41.2482 52.6493 41.3215C52.5555 41.3833 52.4884 41.4952 52.4884 41.6187C52.4884 41.8772 52.7111 41.9451 52.9666 42.0238L53.2885 42.125Z" fill="#024D36"/>
<path d="M56.6156 42.125C56.9161 42.2145 57.4546 42.3727 57.4546 42.9847C57.4546 43.3444 57.2716 43.5636 57.1045 43.6762C56.8933 43.8221 56.5988 43.873 56.3433 43.873C56.1824 43.873 55.7881 43.8561 55.5051 43.6145C55.2496 43.3953 55.1992 43.0858 55.1992 43.0071C55.1992 42.8157 55.3876 42.7709 55.4715 42.7709C55.5989 42.7709 55.6325 42.8389 55.6599 42.8944C55.7377 43.1082 55.743 43.1306 55.7827 43.1931C55.9101 43.3899 56.1435 43.4679 56.3769 43.4679C56.7049 43.4679 56.9489 43.2942 56.9489 43.0295C56.9489 42.7378 56.6934 42.6644 56.4104 42.5803L56.0878 42.4846C55.7827 42.3835 55.3106 42.2261 55.3106 41.6866C55.3106 41.5407 55.3655 40.8492 56.3212 40.8492C57.2601 40.8492 57.4096 41.4952 57.4096 41.6079C57.4096 41.7769 57.2601 41.827 57.1762 41.827C57.0542 41.827 57.0214 41.7653 56.9375 41.6025C56.8879 41.5068 56.7377 41.242 56.2991 41.242C56.232 41.242 56.0825 41.2482 55.9764 41.3215C55.8826 41.3833 55.8155 41.4952 55.8155 41.6187C55.8155 41.8772 56.0382 41.9451 56.2937 42.0238L56.6156 42.125Z" fill="#024D36"/>
<path d="M59.2264 43.5974C59.2264 43.6422 59.2149 43.6877 59.1989 43.7209C59.176 43.7719 59.1097 43.8506 58.9762 43.8506C58.8267 43.8506 58.7214 43.7549 58.7214 43.5974V41.1192C58.7214 41.0513 58.7428 40.8715 58.9709 40.8715C59.2043 40.8715 59.2264 41.0513 59.2264 41.1192V43.5974ZM58.9709 39.8149C59.1318 39.8149 59.2821 39.9276 59.2821 40.1352C59.2821 40.3266 59.16 40.4447 58.9709 40.4447C58.771 40.4447 58.6597 40.3096 58.6597 40.1352C58.6597 39.933 58.7985 39.8149 58.9709 39.8149Z" fill="#024D36"/>
<path d="M61.8817 42.125C62.1815 42.2145 62.72 42.3727 62.72 42.9847C62.72 43.3444 62.5369 43.5636 62.3706 43.6762C62.1594 43.8221 61.865 43.873 61.6094 43.873C61.4485 43.873 61.0542 43.8561 60.7704 43.6145C60.5149 43.3953 60.4653 43.0858 60.4653 43.0071C60.4653 42.8157 60.6537 42.7709 60.7376 42.7709C60.865 42.7709 60.8986 42.8389 60.926 42.8944C61.0038 43.1082 61.0092 43.1306 61.0488 43.1931C61.1762 43.3899 61.4096 43.4679 61.643 43.4679C61.9702 43.4679 62.215 43.2942 62.215 43.0295C62.215 42.7378 61.9588 42.6644 61.6758 42.5803L61.3539 42.4846C61.0488 42.3835 60.5767 42.2261 60.5767 41.6866C60.5767 41.5407 60.6316 40.8492 61.5873 40.8492C62.5262 40.8492 62.6757 41.4952 62.6757 41.6079C62.6757 41.7769 62.5262 41.827 62.4423 41.827C62.3203 41.827 62.2875 41.7653 62.2036 41.6025C62.154 41.5068 62.0038 41.242 61.5652 41.242C61.4981 41.242 61.3486 41.2482 61.2426 41.3215C61.1487 41.3833 61.0816 41.4952 61.0816 41.6187C61.0816 41.8772 61.3043 41.9451 61.5599 42.0238L61.8817 42.125Z" fill="#024D36"/>
<path d="M64.0257 41.3429H63.7313C63.6703 41.3429 63.52 41.3205 63.52 41.1237C63.52 40.9215 63.6703 40.9045 63.7313 40.9045H64.0311V40.2469C64.0311 40.1736 64.0539 40.0053 64.2812 40.0053C64.52 40.0053 64.5367 40.1682 64.5367 40.2469V40.9045H64.8807C64.9479 40.9045 65.092 40.9215 65.092 41.1237C65.092 41.3205 64.9418 41.3429 64.8807 41.3429H64.5367V42.7707C64.5367 43.1079 64.5421 43.1473 64.5589 43.2144C64.5978 43.378 64.7038 43.4058 64.8533 43.4166C64.9868 43.4228 65.1256 43.4336 65.1256 43.6304C65.1256 43.8272 64.9479 43.8496 64.7976 43.8496C64.0257 43.8496 64.0257 43.4282 64.0257 42.9898V41.3429Z" fill="#024D36"/>
<path d="M67.2588 42.4846C67.1643 42.5016 67.0537 42.5294 66.9751 42.5579C66.892 42.5857 66.6418 42.6698 66.6418 42.9847C66.6418 43.2942 66.8813 43.4509 67.1589 43.4509C67.4755 43.4509 67.6867 43.2657 67.7699 43.1537C67.914 42.9508 67.9201 42.6868 67.9255 42.3102C67.8195 42.3557 67.7813 42.3665 67.5479 42.4167L67.2588 42.4846ZM68.3976 43.6253C68.3923 43.687 68.3808 43.8499 68.1749 43.8499C68.0811 43.8445 67.9972 43.8113 67.9644 43.7264C67.9476 43.6816 67.9423 43.6593 67.9423 43.4571C67.67 43.8113 67.2924 43.873 67.0476 43.873C66.4702 43.873 66.1147 43.5134 66.1147 42.9793C66.1147 42.3102 66.6586 42.2037 66.9591 42.1419L67.4312 42.0408C67.6196 42.0015 67.7203 41.9783 67.7699 41.9621C67.8866 41.9281 67.9255 41.8834 67.9255 41.7429C67.9255 41.2652 67.448 41.2652 67.3481 41.2652C66.8645 41.2652 66.7814 41.5068 66.731 41.658C66.715 41.7375 66.6868 41.8386 66.4976 41.8386C66.2925 41.8386 66.2368 41.7205 66.2368 41.6187C66.2368 41.5068 66.3092 41.3663 66.3535 41.293C66.5754 40.9503 66.9644 40.8492 67.3481 40.8492C67.67 40.8492 68.0033 40.9109 68.2085 41.1525C68.3976 41.3771 68.3976 41.6642 68.3976 41.9397V43.6253Z" fill="#024D36"/>
<path d="M69.8364 41.1192C69.8364 41.0405 69.8532 40.9564 69.9585 40.9001C70.0309 40.8661 70.1476 40.8661 70.214 40.9001C70.336 40.9618 70.336 41.0459 70.336 41.2705C70.5641 40.9618 70.8532 40.8491 71.2307 40.8491C71.5305 40.8491 71.8134 40.9394 71.9973 41.1702C72.1857 41.411 72.1918 41.7089 72.1918 42.0068V43.5974C72.1918 43.6708 72.1689 43.8506 71.9362 43.8506C71.8912 43.8506 71.847 43.839 71.8028 43.822C71.6975 43.7665 71.6807 43.6762 71.6807 43.5974V42.2715C71.6807 41.9736 71.6693 41.9057 71.6693 41.8555C71.6693 41.7035 71.6357 41.2929 71.1193 41.2929C70.6144 41.2929 70.4306 41.6757 70.3749 41.9342C70.3421 42.0801 70.3475 42.226 70.3475 42.378V43.5974C70.3475 43.6708 70.3253 43.8506 70.0919 43.8506C70.0477 43.8506 70.0027 43.839 69.9585 43.822C69.8532 43.7665 69.8364 43.6816 69.8364 43.5974V41.1192Z" fill="#024D36"/>
<path d="M75.5684 42.923C75.6073 42.8165 75.6576 42.7038 75.8079 42.7038C75.8742 42.7038 76.0741 42.7432 76.0741 42.94C76.0741 43.0187 76.0405 43.1368 75.9574 43.2772C75.8689 43.4339 75.6134 43.873 74.8247 43.873C73.8133 43.873 73.4854 43.058 73.4854 42.3557C73.4854 42.1304 73.5136 41.9112 73.5853 41.7036C73.8858 40.8492 74.647 40.8492 74.8522 40.8492C75.4959 40.8492 75.7522 41.1247 75.9017 41.3717C76.0184 41.5569 76.0184 41.6248 76.0184 41.6642C76.0184 41.8101 75.8964 41.9112 75.7461 41.9112C75.5913 41.9112 75.5409 41.8047 75.4799 41.675C75.4242 41.5631 75.274 41.276 74.8354 41.276C74.2466 41.276 74.0193 41.7877 74.0193 42.3326C74.0193 42.8165 74.1634 43.4339 74.8354 43.4339C75.3411 43.4339 75.4852 43.1028 75.5684 42.923Z" fill="#024D36"/>
<path d="M79.1622 42.0792C79.1401 41.7088 78.9403 41.2982 78.4124 41.2982C78.2957 41.2982 78.0685 41.309 77.874 41.4834C77.652 41.6802 77.6017 41.9503 77.5742 42.0792H79.1622ZM77.5681 42.5006C77.5795 42.7538 77.6352 42.9791 77.7847 43.1643C77.9739 43.3997 78.2019 43.4399 78.4239 43.4399C78.8625 43.4399 79.0181 43.2091 79.118 43.0517C79.2072 42.8996 79.2347 42.8441 79.3567 42.8441C79.4795 42.8441 79.6458 42.9166 79.6458 43.0802C79.6458 43.1026 79.6458 43.1188 79.6405 43.1358C79.6176 43.2431 79.5238 43.3666 79.4627 43.4337C79.0791 43.8721 78.5795 43.8721 78.4239 43.8721C78.0624 43.8721 77.6962 43.7995 77.4125 43.4792C77.1623 43.1921 77.0464 42.7877 77.0464 42.3833C77.0464 41.6748 77.4239 40.8482 78.4071 40.8482C78.5291 40.8482 78.6512 40.8598 78.7679 40.8876C79.0181 40.9501 79.2347 41.0736 79.4071 41.309C79.5901 41.5683 79.6847 41.9333 79.6847 42.2482C79.6847 42.4844 79.507 42.5006 79.4345 42.5006H77.5681Z" fill="#024D36"/>
<path d="M48.8002 47.551V48.4617H49.2281C49.3555 48.4617 49.4943 48.4617 49.6225 48.3938C49.7948 48.2988 49.8444 48.1414 49.8444 48.0117C49.8444 47.8883 49.8002 47.7648 49.6995 47.6745C49.5668 47.5572 49.3891 47.551 49.1999 47.551H48.8002ZM47.6836 47.3488C47.6836 47.1744 47.6889 46.9382 47.8949 46.7923C48.0284 46.6966 48.1893 46.6966 48.3334 46.6966H49.383C49.6667 46.7082 49.9718 46.7136 50.2555 46.8541C50.6224 47.0339 50.9107 47.4221 50.9107 47.9894C50.9107 48.3544 50.7887 48.6979 50.6056 48.9116C50.2723 49.3045 49.7781 49.3099 49.3891 49.3161H48.7949V50.1025C48.7949 50.1704 48.7888 50.2376 48.772 50.3047C48.7499 50.395 48.6279 50.7207 48.2389 50.7207C48.1389 50.7207 47.9673 50.6929 47.8285 50.5301C47.7004 50.3726 47.6889 50.2322 47.6836 50.0801V47.3488Z" fill="#024D36"/>
<path d="M52.433 48.2478C52.539 47.9275 52.8556 47.7199 53.1828 47.7199C53.2438 47.7199 53.4886 47.7199 53.4886 47.9723C53.4886 48.1691 53.333 48.2031 53.2552 48.2139C53.1164 48.2362 52.9715 48.2594 52.822 48.3543C52.4559 48.6129 52.4559 49.0065 52.4559 49.3438V50.4621C52.4559 50.5516 52.4391 50.6982 52.1996 50.6982C51.9723 50.6982 51.9502 50.5408 51.9502 50.4621V47.9561C51.9502 47.8882 51.9723 47.7199 52.1943 47.7199C52.4109 47.7199 52.433 47.8882 52.433 47.9561V48.2478Z" fill="#024D36"/>
<path d="M56.3507 50.0014C56.5452 49.7483 56.5558 49.3886 56.5558 49.2142C56.5558 48.6693 56.3781 48.1244 55.7008 48.1244C55.5505 48.1244 55.2561 48.1468 55.0449 48.4447C54.9007 48.6585 54.8565 48.9556 54.8565 49.2204C54.8565 49.5067 54.906 49.8162 55.0616 50.0184C55.173 50.1588 55.3896 50.3047 55.7061 50.3047C55.9563 50.3047 56.2004 50.2036 56.3507 50.0014ZM56.7168 50.3101C56.3781 50.6867 55.9617 50.7207 55.6947 50.7207C55.4064 50.7207 55.006 50.6813 54.6894 50.3271C54.3454 49.9451 54.334 49.428 54.334 49.2204C54.334 48.9502 54.3622 48.4779 54.6787 48.1128C55.0227 47.7246 55.4842 47.6914 55.7229 47.6914C56.5391 47.6914 57.0836 48.2193 57.0836 49.181C57.0836 49.4334 57.0554 49.9281 56.7168 50.3101Z" fill="#024D36"/>
<path d="M59.4276 48.142C59.2446 48.142 58.9997 48.1983 58.8281 48.4453C58.6946 48.6421 58.6496 48.9061 58.6496 49.1368C58.6496 49.39 58.6946 49.6647 58.8281 49.8445C58.9387 50.002 59.1332 50.1201 59.3834 50.1201C59.6389 50.1201 59.8723 49.9912 59.9943 49.8114C60.1438 49.5922 60.1553 49.2263 60.1553 49.0975C60.1553 48.9508 60.1553 48.142 59.4276 48.142ZM60.6221 50.2829C60.6221 50.8957 60.5496 51.1936 60.3269 51.402C60.1332 51.5811 59.7998 51.6768 59.417 51.6768C59.0943 51.6768 58.7999 51.6096 58.6054 51.4637C58.4109 51.3225 58.2782 51.0809 58.2782 50.9297C58.2782 50.7552 58.4277 50.6819 58.5444 50.6819C58.7114 50.6819 58.7663 50.8 58.8113 50.8957C58.8609 50.9968 58.883 51.0416 58.9219 51.0871C59.0447 51.2276 59.3224 51.2446 59.4498 51.2446C60.111 51.2446 60.1332 50.817 60.1438 50.4288L60.1499 50.171C60.0218 50.3223 59.8166 50.5638 59.3109 50.5638C58.478 50.5638 58.1279 49.9179 58.1279 49.1762C58.1279 48.9794 58.15 48.788 58.2004 48.5973C58.3613 48.0409 58.7663 47.6974 59.372 47.6974C59.5779 47.6974 59.722 47.7368 59.8273 47.7823C60.0386 47.8773 60.111 47.9845 60.1721 48.0856C60.1774 47.9004 60.1774 47.8719 60.1995 47.8271C60.2216 47.7877 60.2773 47.726 60.394 47.726C60.6053 47.726 60.6221 47.8773 60.6221 47.9398V50.2829Z" fill="#024D36"/>
<path d="M62.5385 48.2478C62.6445 47.9275 62.961 47.7199 63.2882 47.7199C63.3493 47.7199 63.5941 47.7199 63.5941 47.9723C63.5941 48.1691 63.4385 48.2031 63.3607 48.2139C63.2219 48.2362 63.077 48.2594 62.9275 48.3543C62.5606 48.6129 62.5606 49.0065 62.5606 49.3438V50.4621C62.5606 50.5516 62.5446 50.6982 62.3051 50.6982C62.0778 50.6982 62.0557 50.5408 62.0557 50.4621V47.9561C62.0557 47.8882 62.0778 47.7199 62.2997 47.7199C62.5164 47.7199 62.5385 47.8882 62.5385 47.9561V48.2478Z" fill="#024D36"/>
<path d="M65.6226 49.3332C65.528 49.3502 65.4167 49.378 65.3389 49.4066C65.2557 49.4343 65.0056 49.5185 65.0056 49.8334C65.0056 50.1421 65.2443 50.3003 65.5227 50.3003C65.8392 50.3003 66.0505 50.1143 66.1337 50.0024C66.2778 49.7994 66.2839 49.5354 66.2885 49.1588C66.1832 49.2044 66.1443 49.2152 65.9109 49.2653L65.6226 49.3332ZM66.7614 50.4739C66.7553 50.5357 66.7446 50.6985 66.5387 50.6985C66.4448 50.6931 66.3609 50.6599 66.3274 50.575C66.3106 50.5303 66.3053 50.5079 66.3053 50.3057C66.0337 50.6599 65.6562 50.7217 65.4113 50.7217C64.834 50.7217 64.4785 50.362 64.4785 49.828C64.4785 49.1588 65.0223 49.0523 65.3221 48.9906L65.795 48.8887C65.9834 48.8501 66.0833 48.8269 66.1337 48.8107C66.2504 48.7768 66.2885 48.732 66.2885 48.5916C66.2885 48.1138 65.811 48.1138 65.7111 48.1138C65.2283 48.1138 65.1444 48.3554 65.0948 48.5067C65.078 48.5862 65.0506 48.6865 64.8614 48.6865C64.6562 48.6865 64.6006 48.5692 64.6006 48.4673C64.6006 48.3554 64.673 48.2149 64.7165 48.1416C64.9392 47.7989 65.3282 47.6978 65.7111 47.6978C66.0337 47.6978 66.367 47.7596 66.5722 48.0011C66.7614 48.2265 66.7614 48.5128 66.7614 48.7884V50.4739Z" fill="#024D36"/>
<path d="M68.2002 47.9615C68.2002 47.8828 68.217 47.7986 68.3222 47.7477C68.3833 47.7145 68.5114 47.7029 68.5892 47.7477C68.7051 47.804 68.7051 47.8943 68.7051 48.085C68.9225 47.8156 69.1666 47.6914 69.5167 47.6914C69.683 47.6914 69.85 47.7199 69.9942 47.804C70.194 47.9106 70.2718 48.068 70.3107 48.1467C70.5273 47.8828 70.7889 47.6914 71.2107 47.6914C71.4883 47.6914 71.7721 47.7423 71.9773 47.99C72.1664 48.22 72.1771 48.4786 72.1771 48.7595V50.4405C72.1771 50.513 72.155 50.6982 71.9162 50.6982C71.872 50.6982 71.8278 50.6874 71.7889 50.6651C71.6775 50.6141 71.6607 50.5246 71.6607 50.4405V49.1809C71.6607 49.0127 71.6554 48.8552 71.6554 48.7649C71.6554 48.5797 71.6386 48.1467 71.1329 48.1467C70.8332 48.1467 70.6554 48.3103 70.5662 48.4446C70.4442 48.6306 70.4442 48.8159 70.4442 49.052V50.4459C70.4442 50.5246 70.4274 50.6141 70.3221 50.6651C70.2718 50.6928 70.2169 50.6982 70.1886 50.6982C70.1444 50.6982 70.0994 50.6874 70.0552 50.6651C69.9499 50.6141 69.9331 50.5246 69.9331 50.4459V49.0235C69.9331 48.7595 69.9331 48.7094 69.9217 48.6252C69.911 48.5288 69.8668 48.1467 69.4168 48.1467C69.1887 48.1467 68.9835 48.2316 68.85 48.4446C68.7219 48.6476 68.7166 48.8552 68.7166 49.1585V50.4459C68.7166 50.4852 68.7051 50.53 68.6891 50.5694C68.667 50.6203 68.5945 50.6982 68.4611 50.6982C68.2223 50.6982 68.2002 50.513 68.2002 50.4459V47.9615Z" fill="#024D36"/>
<path d="M37.2015 33.58V36.5699H39.4912C40.4858 36.5614 41.1708 35.9864 41.1753 35.0765C41.1639 34.0091 40.4858 33.6008 39.2197 33.5807L37.2015 33.58ZM32.5732 43.3631C31.9684 43.3708 31.4642 43.12 31.256 42.5381L30.6206 40.7035H26.6239L25.9755 42.5365C25.794 43.0999 25.3417 43.3631 24.7147 43.3631C24.701 43.3631 24.6873 43.3631 24.6735 43.3631C24.2853 43.3631 23.9428 43.2396 23.6995 43.0081C23.4539 42.7781 23.3151 42.4424 23.3159 42.0534C23.3189 41.7161 23.4837 41.2523 23.5805 40.986L26.9564 31.9453C27.1898 31.2939 27.7047 31.0315 28.3682 31.0431H28.9891C29.5962 31.0292 30.2347 31.2276 30.5291 32.109L33.6822 40.986C33.7791 41.2523 33.9431 41.7161 33.9461 42.0534C33.9438 42.7897 33.3153 43.3616 32.5732 43.3631ZM23.0138 41.5703C23.0138 42.1128 22.8994 42.5651 22.6157 42.8846C22.332 43.2049 21.8957 43.3639 21.3221 43.3631C21.2969 43.3631 21.2717 43.3639 21.2466 43.3639C20.4579 43.3639 20.0887 43.1262 19.7646 42.5844L15.465 35.7147V41.9407C15.465 42.3945 15.3354 42.7596 15.0837 43.005C14.832 43.2504 14.4742 43.3639 14.0601 43.3631C13.6452 43.3639 13.2882 43.2504 13.0365 43.005C12.784 42.7596 12.6544 42.3945 12.6544 41.9407V32.7395C12.6544 32.1707 12.7924 31.7323 13.1051 31.4444C13.4171 31.1581 13.8671 31.0431 14.4422 31.0431C15.0196 31.0408 15.5604 31.2747 15.8731 31.8064L20.2039 38.876V32.4655C20.2032 32.0117 20.3328 31.6467 20.5853 31.4012C20.837 31.1558 21.1939 31.0423 21.6089 31.0431C22.0238 31.0423 22.3808 31.1558 22.6325 31.4012C22.8857 31.6467 23.0146 32.0117 23.0138 32.4655V41.5703ZM43.9532 33.9636L45.3864 25.7224C45.2705 25.7001 45.1522 25.6908 45.0333 25.6908C44.4803 25.6908 43.912 25.9023 43.4727 26.113C43.0349 26.3244 42.7252 26.5359 42.6924 26.5359C42.6909 26.5359 42.6894 26.5351 42.6894 26.5343C42.6726 26.5343 41.7482 25.0394 40.4378 24.794C40.3295 24.7739 40.2196 24.7646 40.109 24.7646C38.9459 24.7646 37.7011 25.7873 37.7262 25.7919C37.6988 25.7873 36.8949 24.2036 35.5517 23.8817L35.5525 23.8779C35.5418 23.8763 35.5303 23.8755 35.5189 23.8732C35.5082 23.8709 35.4983 23.8678 35.4861 23.8663L35.4853 23.8686C35.3862 23.8555 35.287 23.8493 35.1886 23.8493C34.5624 23.8493 33.9683 24.1032 33.5259 24.3571C33.0842 24.6103 32.7952 24.8642 32.7807 24.8642C32.8036 24.8642 31.8433 23.1825 30.6015 22.9494C30.4658 22.9239 30.3292 22.9131 30.1927 22.9131C29.6069 22.9131 29.0349 23.1246 28.607 23.3353C28.1783 23.5475 27.8938 23.759 27.8831 23.759C27.8824 23.759 27.8831 23.7582 27.8831 23.7575C27.8831 23.7582 27.8824 23.7582 27.8816 23.7582C27.832 23.7582 26.8718 22.2648 25.6499 22.0364C25.5362 22.0148 25.4218 22.0055 25.3074 22.0055C24.7681 22.0055 24.2373 22.2208 23.8338 22.4362C23.4311 22.6515 23.1557 22.8668 23.1275 22.8668C23.126 22.8668 23.126 22.8661 23.1252 22.8661C23.126 22.8661 23.126 22.8668 23.1252 22.8668C23.1084 22.8668 22.1832 21.3711 20.8728 21.1257C20.7653 21.1056 20.6555 21.0964 20.5449 21.0964C19.3817 21.0964 18.1377 22.1182 18.1621 22.1228C18.1354 22.1182 17.3307 20.5345 15.9875 20.2134L15.9883 20.2096C15.9768 20.208 15.9662 20.2073 15.9555 20.2049C15.944 20.2026 15.9334 20.1995 15.9227 20.1972L15.9219 20.2003C15.822 20.1872 15.7228 20.1802 15.6237 20.1802C14.9982 20.1802 14.4041 20.4342 13.9617 20.6881C13.5201 20.942 13.2302 21.1959 13.2157 21.1959C13.2401 21.1951 12.2791 19.5142 11.0374 19.2811C10.9016 19.2556 10.7643 19.2441 10.6278 19.2441C10.0428 19.2441 9.46994 19.4555 9.04204 19.667C8.61338 19.8785 8.32888 20.0907 8.31897 20.0907C8.3182 20.0907 8.3182 20.0899 8.31897 20.0892C8.3182 20.0899 8.3182 20.0899 8.31668 20.0899C8.26481 20.0899 7.29232 18.5788 6.08873 18.3534L3.71433 32.0017C3.80052 31.9345 3.88823 31.8682 3.98052 31.808C4.88055 31.2229 6.04754 30.9798 7.17562 30.9783C9.25408 30.9922 11.7292 32.1221 11.7658 33.8347C11.765 34.5949 11.1136 35.0302 10.4249 35.0309C9.73232 35.0286 9.44553 34.5285 9.06492 34.1225C8.67593 33.7089 8.18549 33.3129 7.0002 33.3068C5.82711 33.3191 5.2726 33.8231 5.26878 34.5285C5.27107 34.8642 5.45413 35.0742 5.77295 35.2555C6.08949 35.4315 6.52654 35.5434 6.93765 35.6391L9.11908 36.1392C11.5629 36.6872 12.241 38.2215 12.228 39.62C12.2295 40.7043 11.8192 41.6691 11 42.3498C10.1808 43.0305 8.96653 43.4272 7.36707 43.428C4.01103 43.4241 2.43293 41.7239 2.42607 40.3454C2.42683 39.6246 2.9638 39.1021 3.67162 39.1006C4.47325 39.1029 4.77682 39.7064 5.17421 40.2034C5.58379 40.7097 6.08339 41.189 7.36707 41.1959C8.66982 41.1905 9.31968 40.482 9.32197 39.8137C9.31052 39.3961 9.16103 38.9748 8.31744 38.7502L5.37176 37.9923C4.09189 37.6704 3.35051 37.1178 2.93482 36.4811L1.25069 46.1601C0.961617 47.743 1.19501 49.0867 3.32915 49.5142L37.2587 55.785C37.4402 55.8197 37.6195 55.8359 37.7972 55.8359C39.119 55.8359 40.2944 54.9245 40.5491 53.5291L43.3568 37.3941C43.2462 37.5415 43.1279 37.6836 42.9945 37.8124C42.2844 38.4978 41.2486 38.8991 39.9527 38.8991H37.2015V41.8921C37.2022 42.3189 37.0619 42.6917 36.8041 42.9541C36.5478 43.2165 36.1802 43.3631 35.7515 43.3631H35.7485C35.3183 43.3639 34.9491 43.2173 34.6928 42.9541C34.4343 42.6917 34.2947 42.3189 34.2955 41.8921V32.9487C34.2939 32.3366 34.4556 31.8983 34.7623 31.6227C35.0704 31.348 35.4914 31.253 35.9712 31.253H39.9687C41.0914 31.253 42.1166 31.5317 42.8686 32.1568C43.3919 32.5905 43.7686 33.1949 43.9532 33.9636ZM27.2981 38.568H29.9494L28.652 34.4884L27.2981 38.568Z" fill="#024D36"/>
<path d="M28.7313 17.0554C28.3537 16.5576 27.5574 15.9865 26.5964 15.9842C25.2677 15.9819 25.0129 16.5854 24.9938 16.5622C25.3096 15.7511 25.7512 14.5301 25.6033 14.1373C25.395 13.5816 24.7429 14.091 24.7429 14.091C24.7429 14.091 24.8947 15.0395 24.6552 16.4349C24.5568 16.36 24.4081 16.2859 24.1617 16.2188C21.4784 15.4825 18.5945 16.7598 17.3779 19.3723C17.7341 19.5923 18.1124 19.8948 18.49 20.3208C19.2108 19.9481 19.9026 19.7597 20.5494 19.7597C20.7439 19.7597 20.9353 19.7775 21.1192 19.8115C21.9322 19.9643 22.7178 20.4204 23.4295 21.1482C24.0824 20.8302 24.7154 20.6689 25.3119 20.6689C25.511 20.6689 25.707 20.6874 25.8962 20.7222C26.8343 20.8981 27.5925 21.4731 28.1729 22.0674C28.2431 22.0342 28.3118 22.011 28.3812 21.9817C28.3812 21.9755 28.3819 21.9694 28.3819 21.9632C28.3659 20.5153 27.7816 19.1153 26.8282 17.9677C27.7206 17.9329 28.3575 17.5725 28.7313 17.0554Z" fill="#C02123"/>
<path d="M43.6517 15.8976L36.5339 12.9425L36.3585 12.8676C36.7116 11.9955 37.0556 11.8527 38.3873 11.5502L41.1683 10.9513L42.9904 13.4835C43.8478 14.7824 44.0056 15.0255 43.6517 15.8976ZM35.7986 22.562L35.81 22.5643L35.8253 22.5682C35.8169 22.5659 35.8078 22.5643 35.7986 22.562ZM48.0474 13.4179L46.168 10.6302C46.271 10.3639 46.3976 10.0467 46.5097 9.79204C46.7576 9.23635 46.0864 9.1777 46.0864 9.1777L42.4893 8.92223C42.4893 8.92223 41.9203 8.85509 41.6732 9.5057C41.6084 9.67627 41.5336 9.86999 41.4558 10.0722L38.3271 10.7946C36.6262 11.0886 36.1868 11.3626 35.7269 12.4971L31.8667 22.0163C32.2984 22.2618 32.7171 22.6075 33.1183 23.0575C33.8239 22.6924 34.5195 22.508 35.1915 22.508C35.3509 22.508 35.5103 22.5188 35.6651 22.5396L35.6941 22.5404L35.7231 22.5458C35.7582 22.552 35.7933 22.5597 35.8284 22.5689H35.8291L35.8596 22.5767C36.45 22.7179 37.2516 23.0829 38.0525 23.9844C38.7725 23.6116 39.4651 23.4233 40.1119 23.4233C40.1927 23.4233 40.2728 23.4279 40.3521 23.4341L42.4649 18.9817L41.0584 23.5707C41.751 23.783 42.4161 24.2128 43.0263 24.8457C43.7433 24.5169 44.4183 24.3494 45.0361 24.3494C45.239 24.3494 45.4388 24.368 45.6303 24.4035L45.7203 24.4204L48.9077 16.5583C49.3684 15.423 49.1633 15.1073 48.0474 13.4179Z" fill="#00ADEF"/>
<path d="M1.53453 20.0177C1.6375 20.0818 1.78852 20.1358 1.94793 20.1358C2.18362 20.1358 2.32167 20.0092 2.32167 19.8271C2.32167 19.6581 2.22557 19.5616 1.98454 19.4682C1.69318 19.3632 1.51317 19.2104 1.51317 18.9557C1.51317 18.6748 1.74428 18.4657 2.09056 18.4657C2.27362 18.4657 2.40634 18.5081 2.48566 18.5536L2.42236 18.7443C2.36362 18.7118 2.24464 18.6586 2.08294 18.6586C1.83886 18.6586 1.74657 18.806 1.74657 18.9295C1.74657 19.0985 1.85488 19.1811 2.10124 19.2776C2.40329 19.3957 2.55736 19.5431 2.55736 19.8086C2.55736 20.0872 2.35295 20.3311 1.93192 20.3311C1.75954 20.3311 1.5719 20.2778 1.47656 20.2137L1.53453 20.0177Z" fill="#024D36"/>
<path d="M4.37666 19.5084C4.36369 19.2568 4.34768 18.9534 4.34996 18.7281H4.34234C4.28132 18.9403 4.20733 19.168 4.11733 19.415L3.80156 20.291H3.62689L3.33781 19.4304C3.25315 19.1757 3.18145 18.9426 3.13111 18.7281H3.12577C3.12043 18.9534 3.10747 19.2568 3.09145 19.5277L3.04416 20.3018H2.82373L2.94882 18.495H3.24247L3.54757 19.3694C3.62155 19.5917 3.68257 19.7901 3.72757 19.9776H3.7352C3.7802 19.7955 3.84427 19.5971 3.9236 19.3694L4.24166 18.495H4.53531L4.64667 20.3018H4.42166L4.37666 19.5084Z" fill="#024D36"/>
</svg>
